<svg xmlns="http://www.w3.org/2000/svg" xmlns:xlink="http://www.w3.org/1999/xlink" width="500" zoomAndPan="magnify" viewBox="0 0 375 374.999991" height="500" preserveAspectRatio="xMidYMid meet" version="1.0"><defs><g/><clipPath id="ae6e2cdc6f"><path d="M 63.226562 63.226562 L 311.476562 63.226562 L 311.476562 311.476562 L 63.226562 311.476562 Z M 63.226562 63.226562 " clip-rule="nonzero"/></clipPath></defs><g clip-path="url(#ae6e2cdc6f)"><path fill="#d9d9d9" d="M 124.777344 63.226562 L 250.21875 63.226562 C 252.234375 63.226562 254.246094 63.324219 256.253906 63.523438 C 258.257812 63.722656 260.25 64.015625 262.226562 64.410156 C 264.203125 64.800781 266.15625 65.292969 268.085938 65.878906 C 270.015625 66.460938 271.910156 67.140625 273.773438 67.910156 C 275.636719 68.683594 277.457031 69.542969 279.234375 70.496094 C 281.011719 71.445312 282.738281 72.480469 284.414062 73.601562 C 286.089844 74.71875 287.707031 75.917969 289.265625 77.199219 C 290.824219 78.476562 292.316406 79.828125 293.742188 81.253906 C 295.167969 82.679688 296.519531 84.171875 297.796875 85.730469 C 299.078125 87.289062 300.277344 88.90625 301.398438 90.582031 C 302.515625 92.257812 303.550781 93.984375 304.5 95.761719 C 305.453125 97.539062 306.3125 99.359375 307.085938 101.222656 C 307.855469 103.085938 308.535156 104.980469 309.121094 106.910156 C 309.703125 108.839844 310.195312 110.792969 310.585938 112.769531 C 310.980469 114.746094 311.277344 116.738281 311.472656 118.742188 C 311.671875 120.75 311.769531 122.761719 311.769531 124.777344 L 311.769531 250.21875 C 311.769531 252.234375 311.671875 254.246094 311.472656 256.253906 C 311.277344 258.257812 310.980469 260.25 310.585938 262.226562 C 310.195312 264.203125 309.703125 266.15625 309.121094 268.085938 C 308.535156 270.015625 307.855469 271.910156 307.085938 273.773438 C 306.3125 275.636719 305.453125 277.457031 304.5 279.234375 C 303.550781 281.011719 302.515625 282.738281 301.398438 284.414062 C 300.277344 286.089844 299.078125 287.707031 297.796875 289.265625 C 296.519531 290.824219 295.167969 292.316406 293.742188 293.742188 C 292.316406 295.167969 290.824219 296.519531 289.265625 297.796875 C 287.707031 299.078125 286.089844 300.277344 284.414062 301.398438 C 282.738281 302.515625 281.011719 303.550781 279.234375 304.5 C 277.457031 305.453125 275.636719 306.3125 273.773438 307.085938 C 271.910156 307.855469 270.015625 308.535156 268.085938 309.121094 C 266.15625 309.703125 264.203125 310.195312 262.226562 310.585938 C 260.25 310.980469 258.257812 311.277344 256.253906 311.472656 C 254.246094 311.671875 252.234375 311.769531 250.21875 311.769531 L 124.777344 311.769531 C 122.761719 311.769531 120.75 311.671875 118.742188 311.472656 C 116.738281 311.277344 114.746094 310.980469 112.769531 310.585938 C 110.792969 310.195312 108.839844 309.703125 106.910156 309.121094 C 104.980469 308.535156 103.085938 307.855469 101.222656 307.085938 C 99.359375 306.3125 97.539062 305.453125 95.761719 304.5 C 93.984375 303.550781 92.257812 302.515625 90.582031 301.398438 C 88.90625 300.277344 87.289062 299.078125 85.730469 297.796875 C 84.171875 296.519531 82.679688 295.167969 81.253906 293.742188 C 79.828125 292.316406 78.476562 290.824219 77.199219 289.265625 C 75.917969 287.707031 74.71875 286.089844 73.601562 284.414062 C 72.480469 282.738281 71.445312 281.011719 70.496094 279.234375 C 69.542969 277.457031 68.683594 275.636719 67.910156 273.773438 C 67.140625 271.910156 66.460938 270.015625 65.878906 268.085938 C 65.292969 266.15625 64.800781 264.203125 64.410156 262.226562 C 64.015625 260.25 63.722656 258.257812 63.523438 256.253906 C 63.324219 254.246094 63.226562 252.234375 63.226562 250.21875 L 63.226562 124.777344 C 63.226562 122.761719 63.324219 120.75 63.523438 118.742188 C 63.722656 116.738281 64.015625 114.746094 64.410156 112.769531 C 64.800781 110.792969 65.292969 108.839844 65.878906 106.910156 C 66.460938 104.980469 67.140625 103.085938 67.910156 101.222656 C 68.683594 99.359375 69.542969 97.539062 70.496094 95.761719 C 71.445312 93.984375 72.480469 92.257812 73.601562 90.582031 C 74.71875 88.90625 75.917969 87.289062 77.199219 85.730469 C 78.476562 84.171875 79.828125 82.679688 81.253906 81.253906 C 82.679688 79.828125 84.171875 78.476562 85.730469 77.199219 C 87.289062 75.917969 88.90625 74.71875 90.582031 73.601562 C 92.257812 72.480469 93.984375 71.445312 95.761719 70.496094 C 97.539062 69.542969 99.359375 68.683594 101.222656 67.910156 C 103.085938 67.140625 104.980469 66.460938 106.910156 65.878906 C 108.839844 65.292969 110.792969 64.800781 112.769531 64.410156 C 114.746094 64.015625 116.738281 63.722656 118.742188 63.523438 C 120.75 63.324219 122.761719 63.226562 124.777344 63.226562 Z M 124.777344 63.226562 " fill-opacity="1" fill-rule="nonzero"/></g><g fill="#545454" fill-opacity="1"><g transform="translate(124.769529, 205.480882)"><g><path d="M 11.453125 -6.03125 C 11.453125 -5.300781 11.753906 -4.9375 12.359375 -4.9375 L 33.5 -4.9375 C 34.800781 -4.9375 35.671875 -4.566406 36.109375 -3.828125 C 36.554688 -3.097656 36.78125 -2.328125 36.78125 -1.515625 C 36.78125 -0.628906 36.535156 0.175781 36.046875 0.90625 C 35.566406 1.644531 34.71875 2.015625 33.5 2.015625 L 9.859375 2.015625 C 8.929688 2.015625 8.097656 1.953125 7.359375 1.828125 C 6.628906 1.703125 6.023438 1.457031 5.546875 1.09375 C 5.015625 0.6875 4.613281 0.128906 4.34375 -0.578125 C 4.082031 -1.285156 3.953125 -2.207031 3.953125 -3.34375 L 3.953125 -37.21875 C 3.953125 -39 4.347656 -40.40625 5.140625 -41.4375 C 5.929688 -42.476562 7.40625 -43 9.5625 -43 L 33.4375 -43 C 34.738281 -43 35.609375 -42.625 36.046875 -41.875 C 36.492188 -41.125 36.71875 -40.34375 36.71875 -39.53125 C 36.71875 -38.632812 36.472656 -37.832031 35.984375 -37.125 C 35.503906 -36.414062 34.65625 -36.0625 33.4375 -36.0625 L 12.359375 -36.0625 C 11.753906 -36.0625 11.453125 -35.691406 11.453125 -34.953125 L 11.453125 -24.296875 L 33.4375 -24.296875 C 34.082031 -24.296875 34.617188 -24.191406 35.046875 -23.984375 C 35.472656 -23.785156 35.8125 -23.523438 36.0625 -23.203125 C 36.300781 -22.878906 36.46875 -22.523438 36.5625 -22.140625 C 36.664062 -21.753906 36.71875 -21.359375 36.71875 -20.953125 C 36.71875 -20.054688 36.460938 -19.242188 35.953125 -18.515625 C 35.453125 -17.785156 34.613281 -17.421875 33.4375 -17.421875 L 11.453125 -17.421875 Z M 11.453125 -6.03125 "/></g></g></g><g fill="#545454" fill-opacity="1"><g transform="translate(164.352052, 205.480882)"><g><path d="M 36.78125 -43 C 37.4375 -43 37.976562 -42.882812 38.40625 -42.65625 C 38.832031 -42.4375 39.164062 -42.164062 39.40625 -41.84375 C 39.644531 -41.476562 39.816406 -41.09375 39.921875 -40.6875 C 40.023438 -40.28125 40.078125 -39.875 40.078125 -39.46875 C 40.078125 -38.570312 39.820312 -37.78125 39.3125 -37.09375 C 38.800781 -36.40625 37.957031 -36.0625 36.78125 -36.0625 L 24.359375 -36.0625 L 24.359375 -0.734375 C 24.359375 0.484375 24.003906 1.347656 23.296875 1.859375 C 22.585938 2.367188 21.703125 2.644531 20.640625 2.6875 C 19.710938 2.71875 18.84375 2.457031 18.03125 1.90625 C 17.21875 1.363281 16.8125 0.484375 16.8125 -0.734375 L 16.8125 -36.0625 L 4.453125 -36.0625 C 3.273438 -36.0625 2.429688 -36.40625 1.921875 -37.09375 C 1.410156 -37.78125 1.15625 -38.570312 1.15625 -39.46875 C 1.15625 -39.875 1.207031 -40.28125 1.3125 -40.6875 C 1.414062 -41.09375 1.585938 -41.476562 1.828125 -41.84375 C 2.066406 -42.164062 2.398438 -42.4375 2.828125 -42.65625 C 3.253906 -42.882812 3.796875 -43 4.453125 -43 Z M 36.78125 -43 "/></g></g></g><g fill="#545454" fill-opacity="1"><g transform="translate(205.76146, 205.480882)"><g><path d="M 34.40625 -12.296875 C 34.851562 -13.398438 35.492188 -14.171875 36.328125 -14.609375 C 37.160156 -15.054688 38.085938 -15.179688 39.109375 -14.984375 C 40.285156 -14.703125 41.113281 -14.082031 41.59375 -13.125 C 42.082031 -12.164062 42.101562 -11.097656 41.65625 -9.921875 C 41.050781 -8.296875 40.21875 -6.722656 39.15625 -5.203125 C 38.101562 -3.679688 36.785156 -2.351562 35.203125 -1.21875 C 33.617188 -0.0390625 31.769531 0.898438 29.65625 1.609375 C 27.550781 2.328125 25.132812 2.6875 22.40625 2.6875 C 19.238281 2.6875 16.414062 2.125 13.9375 1 C 11.46875 -0.113281 9.398438 -1.6875 7.734375 -3.71875 C 6.023438 -5.75 4.734375 -8.179688 3.859375 -11.015625 C 2.992188 -13.859375 2.5625 -17.007812 2.5625 -20.46875 C 2.5625 -23.914062 2.992188 -27.050781 3.859375 -29.875 C 4.734375 -32.695312 6.023438 -35.101562 7.734375 -37.09375 C 9.398438 -39.082031 11.46875 -40.613281 13.9375 -41.6875 C 16.414062 -42.757812 19.238281 -43.296875 22.40625 -43.296875 C 24.363281 -43.296875 26.304688 -43.070312 28.234375 -42.625 C 30.160156 -42.1875 31.976562 -41.476562 33.6875 -40.5 C 35.382812 -39.488281 36.910156 -38.203125 38.265625 -36.640625 C 39.628906 -35.078125 40.71875 -33.195312 41.53125 -31 C 41.976562 -29.820312 41.957031 -28.765625 41.46875 -27.828125 C 40.988281 -26.898438 40.140625 -26.273438 38.921875 -25.953125 C 36.804688 -25.421875 35.28125 -26.3125 34.34375 -28.625 C 33.332031 -31.1875 31.769531 -33.113281 29.65625 -34.40625 C 27.550781 -35.707031 25.21875 -36.359375 22.65625 -36.359375 C 20.5 -36.359375 18.640625 -35.941406 17.078125 -35.109375 C 15.515625 -34.273438 14.226562 -33.148438 13.21875 -31.734375 C 12.164062 -30.304688 11.382812 -28.628906 10.875 -26.703125 C 10.363281 -24.773438 10.109375 -22.695312 10.109375 -20.46875 C 10.109375 -18.226562 10.363281 -16.125 10.875 -14.15625 C 11.382812 -12.1875 12.164062 -10.472656 13.21875 -9.015625 C 14.226562 -7.554688 15.515625 -6.398438 17.078125 -5.546875 C 18.640625 -4.691406 20.5 -4.265625 22.65625 -4.265625 C 24.070312 -4.265625 25.390625 -4.46875 26.609375 -4.875 C 27.828125 -5.28125 28.945312 -5.847656 29.96875 -6.578125 C 30.9375 -7.304688 31.796875 -8.15625 32.546875 -9.125 C 33.304688 -10.101562 33.925781 -11.160156 34.40625 -12.296875 Z M 34.40625 -12.296875 "/></g></g></g></svg>