<svg xmlns="http://www.w3.org/2000/svg" xmlns:xlink="http://www.w3.org/1999/xlink" width="3200" zoomAndPan="magnify" viewBox="0 0 2400 1343.999938" height="1792" preserveAspectRatio="xMidYMid meet" version="1.0"><defs><g/><clipPath id="6f27661b8e"><rect x="0" width="390" y="0" height="601"/></clipPath><clipPath id="d2f20c0ca2"><rect x="0" width="1069" y="0" height="806"/></clipPath></defs><path fill="#d79878" d="M 394.75 809.128906 C 394.75 809.128906 372.339844 820.273438 343.597656 804.722656 C 322.9375 793.546875 320.5625 762.382812 320.5625 762.382812 C 320.5625 762.382812 298.207031 765.089844 282.285156 746.457031 C 264.683594 725.859375 273.816406 693.953125 273.816406 693.953125 C 273.816406 693.953125 252.476562 682.433594 252.476562 654.65625 C 252.476562 635.347656 268.734375 616.039062 268.734375 616.039062 C 268.734375 616.039062 252.476562 591.648438 260.605469 566.242188 C 265.40625 551.246094 286.011719 544.902344 286.011719 544.902344 C 286.011719 544.902344 276.902344 527.792969 287.027344 510.351562 C 293.125 499.847656 315.480469 490.023438 315.480469 490.023438 C 315.480469 490.023438 283.113281 500.09375 265.6875 480.878906 C 252.476562 466.3125 264.671875 436.164062 264.671875 436.164062 C 264.671875 436.164062 249.484375 417.464844 257.894531 391.789062 C 264.332031 372.140625 286.011719 365.027344 286.011719 365.027344 C 286.011719 365.027344 277.203125 342.667969 293.125 327.085938 C 308.285156 312.246094 332.417969 318.277344 332.417969 318.277344 C 332.417969 318.277344 332.082031 291.515625 361.214844 286.777344 C 387.636719 282.476562 400.847656 301.003906 400.847656 301.003906 C 400.847656 301.003906 418.125 288.808594 443.800781 292.953125 C 466.890625 296.679688 470.96875 319.296875 470.96875 319.296875 C 470.96875 319.296875 488.859375 313.214844 503.488281 327.425781 C 515.34375 338.941406 509.585938 358.25 509.585938 358.25 L 529.402344 359.605469 C 529.402344 359.605469 542.242188 340.898438 563.449219 338.605469 C 575.980469 337.25 593.9375 348.765625 593.9375 348.765625 C 593.9375 348.765625 607.855469 342.300781 620.695312 341.3125 C 629.503906 340.636719 647.117188 348.425781 647.117188 348.425781 C 647.117188 348.425781 646.992188 332.757812 660.328125 320.3125 C 670.492188 310.824219 685.398438 312.183594 685.398438 312.183594 C 685.398438 312.183594 683.917969 288.933594 714.871094 280.679688 C 735.191406 275.257812 762.292969 294.226562 762.292969 294.226562 C 762.292969 294.226562 790.828125 277.128906 813.105469 288.128906 C 840.542969 301.679688 840.09375 326.703125 840.09375 326.703125 C 840.09375 326.703125 861.6875 322.699219 875.433594 344.363281 C 886.613281 361.976562 876.789062 383.65625 876.789062 383.65625 C 876.789062 383.65625 890.679688 388.0625 893.390625 402.964844 C 897.21875 424.027344 879.414062 428.902344 879.414062 428.902344 C 879.414062 428.902344 884.804688 442.613281 881.53125 452.421875 C 878.484375 461.570312 861.210938 468.683594 861.210938 468.683594 C 861.210938 468.683594 883.226562 471.730469 895.023438 493.242188 C 906.648438 514.441406 890.753906 537.65625 890.753906 537.65625 C 890.753906 537.65625 912.359375 549.980469 917.035156 572.554688 C 922.277344 597.875 904.90625 624.679688 904.90625 624.679688 C 904.90625 624.679688 921.84375 642.800781 917.441406 665.15625 C 911.488281 695.386719 890.679688 698.015625 890.679688 698.015625 C 890.679688 698.015625 898.808594 736.292969 882.890625 749.503906 C 875.839844 755.355469 850.707031 764.75 850.707031 764.75 C 850.707031 764.75 852.0625 791.171875 833.769531 799.980469 C 795.53125 818.398438 746.375 786.769531 746.375 786.769531 C 746.375 786.769531 731.878906 820.316406 681.332031 820.308594 C 666.765625 820.304688 641.699219 806.078125 641.699219 806.078125 C 641.699219 806.078125 608.164062 828.09375 582.25 822.675781 C 571.78125 820.488281 547.1875 803.03125 547.1875 803.03125 C 547.1875 803.03125 543.09375 830.855469 503.488281 832.5 C 487.90625 833.148438 464.871094 820.308594 464.871094 820.308594 C 464.871094 820.308594 450.433594 836.550781 425.238281 832.5 C 406.269531 829.453125 394.75 809.128906 394.75 809.128906 Z M 394.75 809.128906 " fill-opacity="1" fill-rule="nonzero"/><path fill="#1257ba" d="M 546.09375 660.757812 C 546.09375 661.421875 546.0625 662.085938 545.996094 662.75 C 545.929688 663.410156 545.832031 664.070312 545.703125 664.722656 C 545.574219 665.375 545.414062 666.019531 545.21875 666.65625 C 545.027344 667.292969 544.800781 667.921875 544.546875 668.535156 C 544.292969 669.148438 544.007812 669.75 543.695312 670.339844 C 543.378906 670.925781 543.039062 671.496094 542.667969 672.050781 C 542.300781 672.601562 541.902344 673.136719 541.480469 673.652344 C 541.058594 674.164062 540.613281 674.660156 540.140625 675.128906 C 539.671875 675.601562 539.179688 676.046875 538.664062 676.46875 C 538.148438 676.890625 537.613281 677.285156 537.0625 677.65625 C 536.507812 678.027344 535.9375 678.367188 535.351562 678.683594 C 534.761719 678.996094 534.164062 679.28125 533.546875 679.535156 C 532.933594 679.789062 532.304688 680.011719 531.667969 680.207031 C 531.03125 680.398438 530.386719 680.5625 529.734375 680.691406 C 529.082031 680.820312 528.425781 680.917969 527.761719 680.984375 C 527.097656 681.050781 526.433594 681.082031 525.769531 681.082031 C 525.105469 681.082031 524.441406 681.050781 523.777344 680.984375 C 523.113281 680.917969 522.457031 680.820312 521.804688 680.691406 C 521.152344 680.5625 520.507812 680.398438 519.871094 680.207031 C 519.234375 680.011719 518.605469 679.789062 517.992188 679.535156 C 517.375 679.28125 516.777344 678.996094 516.1875 678.683594 C 515.601562 678.367188 515.03125 678.027344 514.476562 677.65625 C 513.925781 677.285156 513.390625 676.890625 512.875 676.46875 C 512.359375 676.046875 511.867188 675.601562 511.398438 675.128906 C 510.925781 674.660156 510.480469 674.164062 510.058594 673.652344 C 509.636719 673.136719 509.238281 672.601562 508.871094 672.050781 C 508.5 671.496094 508.160156 670.925781 507.84375 670.339844 C 507.53125 669.75 507.246094 669.148438 506.992188 668.535156 C 506.738281 667.921875 506.511719 667.292969 506.320312 666.65625 C 506.125 666.019531 505.964844 665.375 505.835938 664.722656 C 505.707031 664.070312 505.609375 663.410156 505.542969 662.75 C 505.476562 662.085938 505.445312 661.421875 505.445312 660.757812 C 505.445312 660.089844 505.476562 659.425781 505.542969 658.765625 C 505.609375 658.101562 505.707031 657.445312 505.835938 656.792969 C 505.964844 656.140625 506.125 655.496094 506.320312 654.855469 C 506.511719 654.21875 506.738281 653.59375 506.992188 652.980469 C 507.246094 652.363281 507.53125 651.761719 507.84375 651.175781 C 508.160156 650.589844 508.5 650.019531 508.871094 649.464844 C 509.238281 648.910156 509.636719 648.378906 510.058594 647.863281 C 510.480469 647.347656 510.925781 646.855469 511.398438 646.386719 C 511.867188 645.914062 512.359375 645.46875 512.875 645.046875 C 513.390625 644.625 513.925781 644.226562 514.476562 643.859375 C 515.03125 643.488281 515.601562 643.144531 516.1875 642.832031 C 516.777344 642.519531 517.375 642.234375 517.992188 641.980469 C 518.605469 641.726562 519.234375 641.5 519.871094 641.308594 C 520.507812 641.113281 521.152344 640.953125 521.804688 640.824219 C 522.457031 640.691406 523.113281 640.59375 523.777344 640.53125 C 524.441406 640.464844 525.105469 640.433594 525.769531 640.433594 C 526.433594 640.433594 527.097656 640.464844 527.761719 640.53125 C 528.425781 640.59375 529.082031 640.691406 529.734375 640.824219 C 530.386719 640.953125 531.03125 641.113281 531.667969 641.308594 C 532.304688 641.5 532.933594 641.726562 533.546875 641.980469 C 534.164062 642.234375 534.761719 642.519531 535.351562 642.832031 C 535.9375 643.144531 536.507812 643.488281 537.0625 643.859375 C 537.613281 644.226562 538.148438 644.625 538.664062 645.046875 C 539.179688 645.46875 539.671875 645.914062 540.140625 646.386719 C 540.613281 646.855469 541.058594 647.347656 541.480469 647.863281 C 541.902344 648.378906 542.300781 648.910156 542.667969 649.464844 C 543.039062 650.019531 543.378906 650.589844 543.695312 651.175781 C 544.007812 651.761719 544.292969 652.363281 544.546875 652.980469 C 544.800781 653.59375 545.027344 654.21875 545.21875 654.855469 C 545.414062 655.496094 545.574219 656.140625 545.703125 656.792969 C 545.832031 657.445312 545.929688 658.101562 545.996094 658.765625 C 546.0625 659.425781 546.09375 660.089844 546.09375 660.757812 Z M 546.09375 660.757812 " fill-opacity="1" fill-rule="nonzero"/><path fill="#1257ba" d="M 685.320312 660.757812 C 685.320312 671.984375 676.222656 681.082031 664.996094 681.082031 C 653.769531 681.082031 644.671875 671.984375 644.671875 660.757812 C 644.671875 649.53125 653.769531 640.433594 664.996094 640.433594 C 676.222656 640.433594 685.320312 649.53125 685.320312 660.757812 Z M 685.320312 660.757812 " fill-opacity="1" fill-rule="nonzero"/><path fill="#1257ba" d="M 615.199219 666.09375 C 615.199219 671.566406 608.488281 676 600.210938 676 C 591.929688 676 585.21875 671.566406 585.21875 666.09375 C 585.21875 660.621094 591.929688 656.183594 600.210938 656.183594 C 608.488281 656.183594 615.199219 660.621094 615.199219 666.09375 Z M 615.199219 666.09375 " fill-opacity="1" fill-rule="nonzero"/><path fill="#f1c3af" d="M 371.839844 450.128906 C 369.484375 452.527344 366.199219 454.1875 362.984375 455.09375 C 360.453125 455.804688 357.0625 456.28125 354.871094 454.4375 C 353.789062 453.523438 353.285156 452.179688 353.140625 450.800781 C 352.914062 448.667969 353.566406 446.660156 353.730469 444.5625 C 352.695312 444.671875 345.660156 441.914062 344.65625 441.355469 C 342.6875 440.257812 340.90625 438.835938 339.386719 437.175781 C 336.117188 433.597656 334.136719 429.023438 333.105469 424.328125 C 330.722656 413.515625 331.945312 404.992188 342.816406 403.421875 C 336.257812 395.019531 328.097656 370.386719 348.042969 377.007812 C 351.972656 355.117188 374.089844 345.164062 381.890625 370.113281 C 398.488281 356.851562 426.089844 364.308594 426.050781 387.816406 C 435.832031 385.761719 443.050781 386.09375 445.175781 398.46875 C 447.132812 409.859375 444.363281 410.878906 434.433594 414.664062 C 433.996094 423.085938 435.269531 431.164062 427.246094 436.328125 C 421.265625 440.175781 411.726562 439.5625 405.476562 437.105469 C 406.292969 445.761719 397.601562 454.964844 390.09375 457.628906 C 381.871094 460.546875 377.453125 456.164062 371.839844 450.128906 Z M 371.839844 450.128906 " fill-opacity="1" fill-rule="nonzero"/><path fill="#f1c3af" d="M 776.972656 448.097656 C 779.332031 450.496094 782.617188 452.15625 785.832031 453.058594 C 788.363281 453.773438 791.753906 454.25 793.945312 452.40625 C 795.027344 451.492188 795.527344 450.144531 795.675781 448.769531 C 795.902344 446.632812 795.25 444.628906 795.082031 442.53125 C 796.121094 442.636719 803.15625 439.878906 804.160156 439.320312 C 806.128906 438.226562 807.910156 436.804688 809.429688 435.140625 C 812.699219 431.5625 814.675781 426.988281 815.710938 422.292969 C 818.09375 411.484375 816.867188 402.960938 806 401.390625 C 812.558594 392.984375 820.71875 368.355469 800.773438 374.976562 C 796.84375 353.082031 774.726562 343.132812 766.925781 368.082031 C 750.328125 354.816406 722.722656 362.273438 722.765625 385.785156 C 712.984375 383.730469 705.765625 384.0625 703.640625 396.4375 C 701.679688 407.828125 704.453125 408.84375 714.382812 412.632812 C 714.820312 421.050781 713.542969 429.128906 721.570312 434.292969 C 727.550781 438.144531 737.089844 437.53125 743.339844 435.074219 C 742.523438 443.726562 751.214844 452.933594 758.722656 455.597656 C 766.945312 458.511719 771.363281 454.132812 776.972656 448.097656 Z M 776.972656 448.097656 " fill-opacity="1" fill-rule="nonzero"/><path fill="#ecb0b6" d="M 441.398438 718.378906 C 443.347656 726.753906 441.714844 734.292969 437.75 735.21875 C 433.789062 736.140625 428.992188 730.097656 427.042969 721.722656 C 425.089844 713.34375 426.722656 705.808594 430.6875 704.882812 C 434.652344 703.960938 439.445312 710.003906 441.398438 718.378906 Z M 441.398438 718.378906 " fill-opacity="1" fill-rule="nonzero"/><path fill="#ecb0b6" d="M 460.707031 712.28125 C 462.65625 720.65625 461.023438 728.195312 457.058594 729.121094 C 453.097656 730.042969 448.300781 724 446.351562 715.625 C 444.398438 707.25 446.03125 699.710938 449.996094 698.785156 C 453.960938 697.863281 458.753906 703.90625 460.707031 712.28125 Z M 460.707031 712.28125 " fill-opacity="1" fill-rule="nonzero"/><path fill="#ecb0b6" d="M 420.96875 727.539062 C 422.917969 735.914062 421.285156 743.453125 417.320312 744.378906 C 413.359375 745.300781 408.5625 739.257812 406.613281 730.882812 C 404.660156 722.507812 406.292969 714.96875 410.253906 714.046875 C 414.222656 713.121094 419.015625 719.164062 420.96875 727.539062 Z M 420.96875 727.539062 " fill-opacity="1" fill-rule="nonzero"/><path fill="#ecb0b6" d="M 752.84375 724.253906 C 748.328125 731.574219 741.859375 735.777344 738.394531 733.640625 C 734.933594 731.507812 735.78125 723.839844 740.296875 716.519531 C 744.808594 709.199219 751.277344 704.996094 754.738281 707.128906 C 758.203125 709.269531 757.355469 716.933594 752.84375 724.253906 Z M 752.84375 724.253906 " fill-opacity="1" fill-rule="nonzero"/><path fill="#ecb0b6" d="M 770.84375 733.523438 C 766.332031 740.84375 759.863281 745.046875 756.398438 742.910156 C 752.933594 740.773438 753.785156 733.109375 758.296875 725.789062 C 762.8125 718.46875 769.277344 714.265625 772.742188 716.398438 C 776.207031 718.535156 775.359375 726.203125 770.84375 733.523438 Z M 770.84375 733.523438 " fill-opacity="1" fill-rule="nonzero"/><path fill="#ecb0b6" d="M 731.886719 716.375 C 727.371094 723.695312 720.90625 727.898438 717.4375 725.761719 C 713.976562 723.625 714.824219 715.957031 719.335938 708.636719 C 723.851562 701.316406 730.320312 697.113281 733.78125 699.25 C 737.25 701.386719 736.398438 709.050781 731.886719 716.375 Z M 731.886719 716.375 " fill-opacity="1" fill-rule="nonzero"/><g transform="matrix(1, 0, 0, 1, 390, 609)"><g clip-path="url(#6f27661b8e)"><g fill="#1257ba" fill-opacity="1"><g transform="translate(1.98606, 497.785448)"><g><path d="M 179.375 -302.78125 C 180.707031 -302.78125 181.539062 -302.613281 181.875 -302.28125 C 181.875 -301.28125 181.707031 -300.445312 181.375 -299.78125 L 180.875 -299.28125 C 180.875 -298.945312 180.789062 -298.78125 180.625 -298.78125 C 180.457031 -298.78125 180.375 -298.78125 180.375 -298.78125 L 179.875 -298.28125 C 179.539062 -297.945312 179.125 -297.53125 178.625 -297.03125 C 178.125 -296.53125 177.707031 -295.945312 177.375 -295.28125 C 177.375 -294.613281 177.207031 -294.113281 176.875 -293.78125 C 176.539062 -293.457031 176.125 -293.128906 175.625 -292.796875 C 175.125 -292.460938 174.707031 -291.960938 174.375 -291.296875 L 173.375 -289.796875 C 172.707031 -289.128906 172.375 -288.796875 172.375 -288.796875 C 170.707031 -286.460938 169.039062 -285.296875 167.375 -285.296875 C 168.707031 -285.296875 169.039062 -284.960938 168.375 -284.296875 C 167.375 -283.296875 166.539062 -282.628906 165.875 -282.296875 C 165.207031 -281.960938 164.539062 -281.628906 163.875 -281.296875 C 163.21875 -280.960938 162.390625 -280.710938 161.390625 -280.546875 C 160.390625 -280.378906 159.554688 -280.128906 158.890625 -279.796875 C 158.890625 -279.460938 158.222656 -279.296875 156.890625 -279.296875 L 154.890625 -279.296875 C 153.890625 -278.960938 152.972656 -278.710938 152.140625 -278.546875 C 151.304688 -278.378906 150.390625 -278.128906 149.390625 -277.796875 L 146.890625 -277.796875 C 146.554688 -277.796875 146.140625 -277.796875 145.640625 -277.796875 C 145.140625 -277.796875 144.722656 -277.796875 144.390625 -277.796875 C 142.066406 -277.796875 140.738281 -277.960938 140.40625 -278.296875 C 138.40625 -278.296875 136.65625 -278.460938 135.15625 -278.796875 C 133.65625 -279.128906 132.070312 -279.460938 130.40625 -279.796875 C 127.070312 -280.460938 124.15625 -281.210938 121.65625 -282.046875 C 119.164062 -282.878906 116.585938 -283.960938 113.921875 -285.296875 C 109.921875 -285.960938 106.753906 -287.460938 104.421875 -289.796875 C 104.421875 -289.460938 104.335938 -289.296875 104.171875 -289.296875 C 104.003906 -289.296875 103.921875 -289.296875 103.921875 -289.296875 C 102.585938 -287.296875 101.585938 -284.960938 100.921875 -282.296875 C 100.253906 -279.628906 99.585938 -276.796875 98.921875 -273.796875 C 98.585938 -271.804688 98.421875 -269.976562 98.421875 -268.3125 C 98.421875 -266.644531 98.09375 -264.644531 97.4375 -262.3125 L 95.9375 -248.828125 C 95.601562 -246.828125 95.4375 -244.828125 95.4375 -242.828125 C 95.4375 -240.828125 95.101562 -238.492188 94.4375 -235.828125 C 94.4375 -233.492188 94.351562 -231.328125 94.1875 -229.328125 C 94.019531 -227.335938 93.769531 -225.175781 93.4375 -222.84375 C 93.101562 -218.507812 92.769531 -214.34375 92.4375 -210.34375 C 92.101562 -206.351562 91.769531 -202.023438 91.4375 -197.359375 C 93.4375 -198.023438 95.4375 -198.359375 97.4375 -198.359375 C 99.09375 -198.691406 100.753906 -198.859375 102.421875 -198.859375 C 104.085938 -198.859375 105.585938 -198.859375 106.921875 -198.859375 C 108.585938 -198.859375 110.253906 -198.859375 111.921875 -198.859375 C 113.585938 -198.859375 115.085938 -198.691406 116.421875 -198.359375 C 116.753906 -198.359375 117.914062 -198.023438 119.90625 -197.359375 C 121.238281 -197.023438 122.570312 -196.941406 123.90625 -197.109375 C 125.238281 -197.273438 126.238281 -197.191406 126.90625 -196.859375 C 127.238281 -196.523438 127.40625 -196.109375 127.40625 -195.609375 C 127.40625 -195.109375 127.570312 -194.691406 127.90625 -194.359375 C 128.238281 -194.359375 128.738281 -194.273438 129.40625 -194.109375 C 130.070312 -193.941406 130.570312 -193.859375 130.90625 -193.859375 L 132.40625 -193.859375 C 131.738281 -193.191406 130.738281 -192.859375 129.40625 -192.859375 C 127.40625 -191.523438 125.488281 -190.273438 123.65625 -189.109375 C 121.820312 -187.941406 119.910156 -186.859375 117.921875 -185.859375 C 115.585938 -185.191406 113.335938 -184.273438 111.171875 -183.109375 C 109.003906 -181.953125 106.753906 -180.875 104.421875 -179.875 L 89.4375 -173.375 C 89.769531 -170.707031 89.9375 -168.289062 89.9375 -166.125 C 89.9375 -163.96875 89.9375 -162.722656 89.9375 -162.390625 C 89.9375 -162.054688 89.851562 -161.554688 89.6875 -160.890625 C 89.519531 -160.222656 89.601562 -159.222656 89.9375 -157.890625 C 89.9375 -157.554688 90.101562 -156.722656 90.4375 -155.390625 C 90.769531 -154.054688 90.601562 -152.722656 89.9375 -151.390625 C 90.9375 -148.054688 90.9375 -144.226562 89.9375 -139.90625 L 90.4375 -139.40625 C 90.101562 -139.070312 90.1875 -138.15625 90.6875 -136.65625 C 91.1875 -135.15625 91.269531 -133.738281 90.9375 -132.40625 C 90.9375 -132.070312 91.019531 -131.90625 91.1875 -131.90625 C 91.351562 -131.90625 91.4375 -131.738281 91.4375 -131.40625 C 91.101562 -130.738281 91.269531 -129.570312 91.9375 -127.90625 C 91.601562 -124.90625 91.519531 -122.738281 91.6875 -121.40625 C 91.851562 -120.082031 91.769531 -118.253906 91.4375 -115.921875 C 91.769531 -114.585938 91.9375 -113.253906 91.9375 -111.921875 C 91.9375 -110.585938 91.9375 -109.085938 91.9375 -107.421875 C 91.9375 -107.085938 92.101562 -106.835938 92.4375 -106.671875 C 92.769531 -106.503906 92.9375 -106.253906 92.9375 -105.921875 C 93.269531 -105.585938 93.351562 -105.335938 93.1875 -105.171875 C 93.019531 -105.003906 92.9375 -104.585938 92.9375 -103.921875 L 92.9375 -102.921875 C 92.9375 -102.921875 92.769531 -102.753906 92.4375 -102.421875 C 92.101562 -102.085938 91.9375 -101.421875 91.9375 -100.421875 C 91.9375 -100.085938 92.101562 -99.835938 92.4375 -99.671875 C 92.769531 -99.503906 92.9375 -99.085938 92.9375 -98.421875 C 92.9375 -98.085938 92.769531 -97.753906 92.4375 -97.421875 C 92.101562 -97.097656 91.9375 -96.9375 91.9375 -96.9375 C 91.9375 -95.601562 92.269531 -94.4375 92.9375 -93.4375 C 93.601562 -92.4375 93.601562 -91.269531 92.9375 -89.9375 C 93.269531 -89.269531 93.351562 -88.519531 93.1875 -87.6875 C 93.019531 -86.851562 93.101562 -85.769531 93.4375 -84.4375 C 94.101562 -84.4375 94.4375 -83.769531 94.4375 -82.4375 C 94.4375 -82.101562 94.351562 -81.851562 94.1875 -81.6875 C 94.019531 -81.519531 93.9375 -81.269531 93.9375 -80.9375 C 93.9375 -79.601562 94.1875 -78.269531 94.6875 -76.9375 C 95.1875 -75.613281 95.101562 -74.117188 94.4375 -72.453125 C 95.4375 -70.785156 95.6875 -68.785156 95.1875 -66.453125 C 94.6875 -64.117188 95.269531 -62.453125 96.9375 -61.453125 C 97.925781 -61.453125 98.753906 -61.117188 99.421875 -60.453125 C 99.421875 -60.117188 99.085938 -59.285156 98.421875 -57.953125 L 98.421875 -50.96875 C 98.421875 -49.96875 98.585938 -49.300781 98.921875 -48.96875 C 99.253906 -48.632812 99.421875 -48.300781 99.421875 -47.96875 C 99.753906 -47.96875 99.671875 -47.550781 99.171875 -46.71875 C 98.671875 -45.882812 98.585938 -45.132812 98.921875 -44.46875 C 98.921875 -44.132812 99.085938 -43.800781 99.421875 -43.46875 C 99.753906 -43.132812 99.921875 -42.632812 99.921875 -41.96875 C 99.921875 -41.300781 99.671875 -40.632812 99.171875 -39.96875 C 98.671875 -39.300781 98.421875 -38.800781 98.421875 -38.46875 L 98.421875 -37.46875 C 97.429688 -36.800781 96.769531 -35.382812 96.4375 -33.21875 C 96.101562 -31.0625 95.9375 -29.648438 95.9375 -28.984375 L 95.9375 -26.484375 C 95.269531 -24.816406 94.351562 -23.148438 93.1875 -21.484375 C 92.019531 -19.816406 90.9375 -18.148438 89.9375 -16.484375 C 89.601562 -16.484375 89.351562 -16.398438 89.1875 -16.234375 C 89.019531 -16.066406 88.9375 -15.984375 88.9375 -15.984375 C 86.9375 -14.648438 85.9375 -13.148438 85.9375 -11.484375 L 83.9375 -11.484375 C 83.269531 -11.148438 82.601562 -10.648438 81.9375 -9.984375 C 81.269531 -9.328125 80.601562 -8.832031 79.9375 -8.5 C 78.601562 -7.164062 77.4375 -6.164062 76.4375 -5.5 C 75.78125 -5.164062 74.867188 -4.914062 73.703125 -4.75 C 72.535156 -4.582031 71.453125 -4.164062 70.453125 -3.5 C 69.117188 -3.832031 67.453125 -3.832031 65.453125 -3.5 C 63.453125 -3.164062 61.453125 -3 59.453125 -3 C 59.453125 -3 59.285156 -2.914062 58.953125 -2.75 C 58.617188 -2.582031 58.285156 -2.5 57.953125 -2.5 C 57.285156 -3.5 56.367188 -4 55.203125 -4 C 54.046875 -4 52.96875 -4.164062 51.96875 -4.5 C 50.96875 -4.5 50.132812 -5.164062 49.46875 -6.5 C 49.46875 -6.832031 49.132812 -7.082031 48.46875 -7.25 C 47.800781 -7.414062 47.132812 -7.664062 46.46875 -8 C 45.800781 -9.664062 44.382812 -11.410156 42.21875 -13.234375 C 40.050781 -15.066406 38.132812 -16.816406 36.46875 -18.484375 C 36.46875 -19.148438 36.46875 -19.484375 36.46875 -19.484375 C 36.132812 -20.484375 35.71875 -21.566406 35.21875 -22.734375 C 34.71875 -23.898438 34.132812 -24.816406 33.46875 -25.484375 C 32.476562 -26.148438 31.898438 -27.148438 31.734375 -28.484375 C 31.566406 -29.816406 31.484375 -30.648438 31.484375 -30.984375 L 31.484375 -33.96875 C 31.484375 -34.96875 31.398438 -35.882812 31.234375 -36.71875 C 31.066406 -37.550781 30.816406 -38.46875 30.484375 -39.46875 C 29.816406 -40.800781 29.734375 -41.882812 30.234375 -42.71875 C 30.734375 -43.550781 30.984375 -44.46875 30.984375 -45.46875 C 30.984375 -45.800781 30.648438 -46.21875 29.984375 -46.71875 C 29.316406 -47.21875 28.984375 -47.632812 28.984375 -47.96875 C 28.984375 -48.300781 29.398438 -48.882812 30.234375 -49.71875 C 31.066406 -50.550781 31.484375 -51.132812 31.484375 -51.46875 L 31.484375 -54.953125 C 31.816406 -55.285156 32.3125 -55.535156 32.96875 -55.703125 C 33.632812 -55.867188 34.132812 -56.117188 34.46875 -56.453125 C 34.800781 -58.117188 34.300781 -59.453125 32.96875 -60.453125 C 31.644531 -61.453125 31.484375 -62.117188 32.484375 -62.453125 C 33.804688 -64.117188 34.382812 -65.703125 34.21875 -67.203125 C 34.050781 -68.703125 34.132812 -70.117188 34.46875 -71.453125 C 34.46875 -72.785156 34.550781 -73.945312 34.71875 -74.9375 C 34.882812 -75.9375 34.96875 -77.101562 34.96875 -78.4375 C 35.300781 -79.4375 35.382812 -80.4375 35.21875 -81.4375 C 35.050781 -82.4375 35.132812 -83.4375 35.46875 -84.4375 C 35.132812 -84.769531 35.300781 -86.269531 35.96875 -88.9375 C 36.300781 -91.269531 36.300781 -93.597656 35.96875 -95.921875 C 35.632812 -98.253906 35.632812 -100.585938 35.96875 -102.921875 C 35.632812 -104.585938 35.550781 -106.253906 35.71875 -107.921875 C 35.882812 -109.585938 36.132812 -111.085938 36.46875 -112.421875 C 36.132812 -114.085938 36.21875 -115.585938 36.71875 -116.921875 C 37.21875 -118.253906 37.46875 -119.582031 37.46875 -120.90625 C 36.46875 -121.90625 35.96875 -123.738281 35.96875 -126.40625 C 35.96875 -126.738281 36.050781 -126.988281 36.21875 -127.15625 C 36.382812 -127.320312 36.46875 -127.570312 36.46875 -127.90625 C 36.46875 -128.570312 36.382812 -129.40625 36.21875 -130.40625 C 36.050781 -131.40625 35.96875 -132.40625 35.96875 -133.40625 C 36.300781 -134.070312 36.632812 -134.820312 36.96875 -135.65625 C 37.300781 -136.488281 37.132812 -137.738281 36.46875 -139.40625 C 36.46875 -139.40625 36.382812 -139.488281 36.21875 -139.65625 C 36.050781 -139.820312 35.96875 -140.070312 35.96875 -140.40625 C 35.632812 -143.726562 35.132812 -146.804688 34.46875 -149.640625 C 33.800781 -152.472656 33.140625 -155.054688 32.484375 -157.390625 C 30.484375 -157.390625 28.316406 -157.304688 25.984375 -157.140625 C 23.648438 -156.972656 21.316406 -157.054688 18.984375 -157.390625 L 16.484375 -157.390625 C 15.148438 -157.390625 14.234375 -157.390625 13.734375 -157.390625 C 13.234375 -157.390625 12.984375 -157.390625 12.984375 -157.390625 C 12.648438 -157.390625 12.398438 -157.472656 12.234375 -157.640625 C 12.066406 -157.804688 11.648438 -157.890625 10.984375 -157.890625 C 10.660156 -157.890625 10.332031 -157.972656 10 -158.140625 C 9.664062 -158.304688 9.164062 -158.390625 8.5 -158.390625 L 7 -158.390625 C 6.664062 -158.390625 6.332031 -158.640625 6 -159.140625 C 5.664062 -159.640625 5.332031 -159.890625 5 -159.890625 C 6 -160.554688 6.414062 -161.140625 6.25 -161.640625 C 6.082031 -162.140625 6 -162.554688 6 -162.890625 C 5.332031 -163.546875 5.332031 -164.539062 6 -165.875 C 5.664062 -166.539062 5.25 -167.039062 4.75 -167.375 C 4.25 -167.707031 4 -168.039062 4 -168.375 L 5 -169.875 C 5.332031 -169.875 5.664062 -169.875 6 -169.875 C 6.332031 -169.875 6.664062 -169.875 7 -169.875 C 7 -169.875 7.082031 -169.957031 7.25 -170.125 C 7.414062 -170.289062 7.664062 -170.375 8 -170.375 L 8.5 -170.875 L 9 -170.875 L 10.5 -171.875 C 12.15625 -172.539062 12.984375 -172.875 12.984375 -172.875 C 15.984375 -174.875 20.484375 -175.875 26.484375 -175.875 C 28.484375 -175.875 30.148438 -176.207031 31.484375 -176.875 C 31.484375 -178.539062 31.398438 -180.125 31.234375 -181.625 C 31.066406 -183.125 30.984375 -184.535156 30.984375 -185.859375 C 30.984375 -188.523438 30.816406 -190.359375 30.484375 -191.359375 L 30.484375 -207.84375 C 30.484375 -211.507812 30.484375 -215.257812 30.484375 -219.09375 C 30.484375 -222.925781 30.484375 -226.671875 30.484375 -230.328125 C 30.816406 -238.992188 30.566406 -247.238281 29.734375 -255.0625 C 28.898438 -262.894531 28.648438 -270.972656 28.984375 -279.296875 C 29.648438 -282.628906 30.316406 -286.289062 30.984375 -290.28125 C 31.648438 -294.28125 32.148438 -298.445312 32.484375 -302.78125 C 32.484375 -303.113281 32.644531 -303.363281 32.96875 -303.53125 C 33.300781 -303.695312 33.46875 -303.945312 33.46875 -304.28125 L 34.46875 -308.28125 C 35.132812 -309.613281 35.46875 -311.113281 35.46875 -312.78125 L 36.46875 -314.78125 L 36.46875 -315.765625 L 37.46875 -315.765625 L 38.46875 -318.265625 C 38.800781 -319.929688 38.882812 -320.515625 38.71875 -320.015625 C 38.550781 -319.515625 38.632812 -319.265625 38.96875 -319.265625 L 38.96875 -320.765625 L 39.96875 -321.765625 L 40.96875 -323.765625 L 42.46875 -326.265625 C 43.132812 -327.597656 43.71875 -328.765625 44.21875 -329.765625 C 44.71875 -330.765625 45.132812 -331.597656 45.46875 -332.265625 C 46.132812 -333.597656 46.71875 -334.757812 47.21875 -335.75 C 47.71875 -336.75 48.46875 -337.75 49.46875 -338.75 C 49.800781 -340.414062 50.710938 -342.414062 52.203125 -344.75 C 53.703125 -347.082031 55.453125 -349.582031 57.453125 -352.25 C 58.453125 -352.914062 59.617188 -354.082031 60.953125 -355.75 C 62.285156 -357.414062 63.617188 -358.410156 64.953125 -358.734375 C 66.617188 -360.066406 68.535156 -361.398438 70.703125 -362.734375 C 72.867188 -364.066406 75.28125 -365.066406 77.9375 -365.734375 C 78.9375 -366.066406 79.769531 -366.316406 80.4375 -366.484375 C 81.101562 -366.648438 81.769531 -366.734375 82.4375 -366.734375 C 83.101562 -367.066406 83.769531 -367.234375 84.4375 -367.234375 C 85.101562 -367.234375 85.601562 -367.234375 85.9375 -367.234375 L 89.9375 -367.234375 C 91.269531 -367.234375 92.4375 -367.066406 93.4375 -366.734375 C 99.09375 -366.066406 102.921875 -364.734375 104.921875 -362.734375 C 105.253906 -362.398438 105.671875 -362.234375 106.171875 -362.234375 C 106.671875 -362.234375 107.085938 -362.066406 107.421875 -361.734375 L 108.921875 -360.234375 L 110.421875 -359.234375 L 111.421875 -358.734375 C 111.753906 -358.410156 112.253906 -358.25 112.921875 -358.25 C 113.921875 -357.914062 115.003906 -357.25 116.171875 -356.25 C 117.335938 -355.25 118.253906 -354.414062 118.921875 -353.75 C 120.578125 -352.414062 121.820312 -350.914062 122.65625 -349.25 C 123.488281 -347.582031 124.570312 -346.082031 125.90625 -344.75 C 130.238281 -338.757812 133.40625 -332.765625 135.40625 -326.765625 C 136.40625 -324.429688 137.648438 -321.929688 139.140625 -319.265625 C 140.640625 -316.597656 141.890625 -314.101562 142.890625 -311.78125 C 144.222656 -309.445312 146.554688 -307.78125 149.890625 -306.78125 C 151.890625 -304.445312 154.222656 -303.28125 156.890625 -303.28125 L 158.890625 -303.28125 C 158.890625 -302.945312 158.890625 -302.78125 158.890625 -302.78125 C 158.890625 -302.78125 158.890625 -302.613281 158.890625 -302.28125 C 159.222656 -302.28125 159.554688 -302.113281 159.890625 -301.78125 C 160.222656 -301.445312 160.722656 -301.28125 161.390625 -301.28125 C 161.722656 -300.945312 162.222656 -300.78125 162.890625 -300.78125 C 163.878906 -301.445312 164.125 -301.445312 163.625 -300.78125 C 163.132812 -300.113281 163.382812 -299.613281 164.375 -299.28125 C 164.707031 -299.613281 165.207031 -299.78125 165.875 -299.78125 C 166.539062 -299.78125 167.039062 -299.945312 167.375 -300.28125 C 168.039062 -300.28125 168.707031 -300.363281 169.375 -300.53125 C 170.039062 -300.695312 170.707031 -300.945312 171.375 -301.28125 C 171.707031 -300.945312 172.539062 -300.78125 173.875 -300.78125 C 174.539062 -301.113281 175.207031 -301.363281 175.875 -301.53125 C 176.539062 -301.695312 177.039062 -301.945312 177.375 -302.28125 L 177.875 -302.78125 C 178.207031 -302.78125 178.539062 -302.78125 178.875 -302.78125 C 179.207031 -302.78125 179.375 -302.78125 179.375 -302.78125 Z M 179.375 -302.78125 "/></g></g></g><g fill="#1257ba" fill-opacity="1"><g transform="translate(143.380724, 497.785448)"><g><path d="M 80.4375 -294.28125 C 82.101562 -290.625 82.9375 -287.210938 82.9375 -284.046875 C 82.9375 -280.878906 80.769531 -277.960938 76.4375 -275.296875 L 73.953125 -277.796875 C 73.617188 -277.460938 73.203125 -277.128906 72.703125 -276.796875 C 72.203125 -276.460938 71.785156 -275.960938 71.453125 -275.296875 C 71.453125 -274.296875 71.535156 -273.210938 71.703125 -272.046875 C 71.867188 -270.890625 71.785156 -269.8125 71.453125 -268.8125 C 70.785156 -267.144531 70.535156 -265.226562 70.703125 -263.0625 C 70.867188 -260.894531 69.117188 -259.476562 65.453125 -258.8125 C 63.785156 -258.476562 62.285156 -257.394531 60.953125 -255.5625 C 59.617188 -253.726562 57.617188 -254.144531 54.953125 -256.8125 C 54.617188 -257.144531 54.203125 -257.226562 53.703125 -257.0625 C 53.210938 -256.894531 52.632812 -256.8125 51.96875 -256.8125 C 47.632812 -255.476562 44.71875 -254.976562 43.21875 -255.3125 C 41.71875 -255.644531 39.132812 -257.644531 35.46875 -261.3125 C 33.144531 -259.3125 30.648438 -258.726562 27.984375 -259.5625 C 25.316406 -260.394531 22.648438 -260.976562 19.984375 -261.3125 C 18.316406 -261.644531 16.566406 -262.894531 14.734375 -265.0625 C 12.898438 -267.226562 11.816406 -269.3125 11.484375 -271.3125 C 10.492188 -276.300781 9.75 -281.289062 9.25 -286.28125 C 8.75 -291.28125 10.328125 -295.945312 13.984375 -300.28125 C 14.984375 -309.28125 18.476562 -315.023438 24.46875 -317.515625 C 30.46875 -320.015625 36.96875 -321.929688 43.96875 -323.265625 L 42.46875 -328.765625 C 43.132812 -329.097656 44.132812 -329.265625 45.46875 -329.265625 C 48.132812 -329.265625 50.796875 -329.265625 53.453125 -329.265625 C 56.117188 -329.265625 58.617188 -329.097656 60.953125 -328.765625 C 62.953125 -328.765625 64.285156 -328.429688 64.953125 -327.765625 C 66.953125 -324.097656 69.613281 -320.847656 72.9375 -318.015625 C 76.269531 -315.191406 77.9375 -311.28125 77.9375 -306.28125 C 77.9375 -302.28125 78.769531 -298.28125 80.4375 -294.28125 Z M 69.953125 -187.859375 C 73.285156 -184.867188 75.445312 -181.289062 76.4375 -177.125 C 77.4375 -172.957031 77.9375 -168.539062 77.9375 -163.875 C 77.9375 -159.21875 77.601562 -154.390625 76.9375 -149.390625 C 76.28125 -144.390625 75.617188 -139.726562 74.953125 -135.40625 C 73.617188 -122.082031 72.617188 -108.09375 71.953125 -93.4375 C 71.617188 -86.4375 71.203125 -79.601562 70.703125 -72.9375 C 70.203125 -66.28125 69.617188 -60.117188 68.953125 -54.453125 C 68.617188 -53.128906 68.535156 -51.882812 68.703125 -50.71875 C 68.867188 -49.550781 68.785156 -48.300781 68.453125 -46.96875 C 68.117188 -45.96875 67.703125 -44.882812 67.203125 -43.71875 C 66.703125 -42.550781 66.453125 -41.300781 66.453125 -39.96875 C 64.785156 -32.3125 65.285156 -23.984375 67.953125 -14.984375 C 68.285156 -13.984375 68.535156 -13.066406 68.703125 -12.234375 C 68.867188 -11.398438 68.953125 -10.65625 68.953125 -10 C 69.285156 -9.332031 69.535156 -8.664062 69.703125 -8 C 69.867188 -7.332031 70.117188 -6.664062 70.453125 -6 C 69.117188 -6.664062 67.785156 -6.832031 66.453125 -6.5 C 66.117188 -6.164062 65.617188 -5.832031 64.953125 -5.5 C 64.285156 -5.164062 63.617188 -4.832031 62.953125 -4.5 C 60.953125 -5.5 59.117188 -6.5 57.453125 -7.5 C 55.785156 -8.5 54.289062 -9.660156 52.96875 -10.984375 C 50.300781 -13.316406 47.96875 -15.648438 45.96875 -17.984375 C 41.96875 -22.648438 38.800781 -26.984375 36.46875 -30.984375 C 34.132812 -35.640625 31.96875 -40.132812 29.96875 -44.46875 C 27.976562 -48.800781 25.984375 -53.296875 23.984375 -57.953125 C 23.648438 -58.617188 23.148438 -58.617188 22.484375 -57.953125 C 21.816406 -57.285156 21.484375 -57.285156 21.484375 -57.953125 C 19.484375 -67.617188 17.984375 -77.363281 16.984375 -87.1875 C 15.984375 -97.007812 15.316406 -106.585938 14.984375 -115.921875 C 14.648438 -125.578125 14.566406 -134.984375 14.734375 -144.140625 C 14.898438 -153.304688 15.316406 -162.050781 15.984375 -170.375 C 16.316406 -172.707031 16.648438 -175.039062 16.984375 -177.375 C 17.316406 -179.707031 17.648438 -182.039062 17.984375 -184.375 C 18.316406 -185.363281 18.648438 -186.359375 18.984375 -187.359375 C 19.316406 -188.359375 19.648438 -189.359375 19.984375 -190.359375 C 20.648438 -191.691406 21.148438 -192.523438 21.484375 -192.859375 C 22.148438 -193.191406 22.648438 -193.609375 22.984375 -194.109375 C 23.316406 -194.609375 23.648438 -195.023438 23.984375 -195.359375 C 26.316406 -195.359375 28.644531 -195.109375 30.96875 -194.609375 C 33.300781 -194.109375 35.300781 -194.859375 36.96875 -196.859375 C 38.300781 -197.191406 39.050781 -196.859375 39.21875 -195.859375 C 39.382812 -194.859375 40.132812 -194.359375 41.46875 -194.359375 C 44.800781 -198.691406 49.296875 -199.691406 54.953125 -197.359375 C 60.285156 -194.691406 63.617188 -191.359375 64.953125 -187.359375 C 66.285156 -187.023438 67.203125 -187.023438 67.703125 -187.359375 C 68.203125 -187.691406 68.953125 -187.859375 69.953125 -187.859375 Z M 70.953125 -5.5 L 70.453125 -6 C 70.453125 -6 70.535156 -5.914062 70.703125 -5.75 C 70.867188 -5.582031 70.953125 -5.5 70.953125 -5.5 Z M 70.953125 -5.5 "/></g></g></g><g fill="#1257ba" fill-opacity="1"><g transform="translate(229.816199, 497.785448)"><g><path d="M 156.890625 -264.8125 C 156.890625 -263.8125 156.472656 -262.976562 155.640625 -262.3125 C 154.804688 -261.644531 154.222656 -260.976562 153.890625 -260.3125 C 154.554688 -258.644531 154.722656 -257.3125 154.390625 -256.3125 C 153.390625 -255.976562 152.472656 -255.726562 151.640625 -255.5625 C 150.804688 -255.394531 150.222656 -254.8125 149.890625 -253.8125 C 149.222656 -252.476562 150.054688 -251.476562 152.390625 -250.8125 C 154.722656 -250.15625 154.554688 -249.328125 151.890625 -248.328125 C 150.554688 -246.992188 149.972656 -245.410156 150.140625 -243.578125 C 150.304688 -241.742188 150.222656 -239.992188 149.890625 -238.328125 C 149.890625 -237.328125 149.804688 -236.160156 149.640625 -234.828125 C 149.472656 -233.492188 149.390625 -232.492188 149.390625 -231.828125 C 149.390625 -230.492188 149.472656 -229.242188 149.640625 -228.078125 C 149.804688 -226.921875 149.722656 -226.007812 149.390625 -225.34375 C 149.722656 -224.007812 149.390625 -222.175781 148.390625 -219.84375 C 148.390625 -217.507812 148.722656 -215.09375 149.390625 -212.59375 C 150.054688 -210.09375 150.054688 -207.515625 149.390625 -204.859375 C 150.054688 -202.859375 150.054688 -200.691406 149.390625 -198.359375 C 149.722656 -196.359375 149.972656 -194.523438 150.140625 -192.859375 C 150.304688 -191.191406 150.390625 -189.359375 150.390625 -187.359375 L 150.390625 -174.875 C 150.390625 -173.207031 150.390625 -171.375 150.390625 -169.375 C 150.390625 -167.375 150.390625 -165.210938 150.390625 -162.890625 C 150.390625 -161.222656 150.640625 -159.390625 151.140625 -157.390625 C 151.640625 -155.390625 151.722656 -153.222656 151.390625 -150.890625 L 150.390625 -150.390625 C 150.390625 -148.054688 150.640625 -145.972656 151.140625 -144.140625 C 151.640625 -142.304688 151.390625 -140.5625 150.390625 -138.90625 C 151.054688 -138.90625 151.390625 -138.40625 151.390625 -137.40625 L 149.890625 -137.40625 C 149.554688 -125.082031 149.054688 -112.753906 148.390625 -100.421875 C 147.722656 -88.097656 146.554688 -75.609375 144.890625 -62.953125 C 144.890625 -63.285156 144.722656 -63.535156 144.390625 -63.703125 C 144.054688 -63.867188 143.890625 -64.117188 143.890625 -64.453125 C 144.554688 -65.117188 144.890625 -65.785156 144.890625 -66.453125 C 144.890625 -67.117188 144.890625 -67.617188 144.890625 -67.953125 C 144.890625 -67.617188 144.722656 -67.117188 144.390625 -66.453125 C 144.054688 -65.785156 143.890625 -65.117188 143.890625 -64.453125 C 142.890625 -57.785156 141.640625 -51.203125 140.140625 -44.703125 C 138.648438 -38.210938 137.070312 -31.804688 135.40625 -25.484375 L 135.40625 -26.984375 C 135.070312 -24.648438 134.570312 -22.148438 133.90625 -19.484375 C 133.238281 -16.816406 132.070312 -14.484375 130.40625 -12.484375 C 129.070312 -12.484375 128.40625 -11.820312 128.40625 -10.5 C 128.40625 -12.15625 128.820312 -13.484375 129.65625 -14.484375 C 130.488281 -15.484375 131.238281 -16.648438 131.90625 -17.984375 C 132.238281 -19.648438 132.488281 -21.398438 132.65625 -23.234375 C 132.820312 -25.066406 133.238281 -26.816406 133.90625 -28.484375 C 133.90625 -29.148438 133.90625 -29.148438 133.90625 -28.484375 C 133.90625 -27.816406 133.570312 -27.484375 132.90625 -27.484375 C 132.90625 -28.484375 133.070312 -29.398438 133.40625 -30.234375 C 133.738281 -31.066406 133.90625 -31.976562 133.90625 -32.96875 L 132.90625 -32.96875 C 133.570312 -34.300781 134.15625 -35.46875 134.65625 -36.46875 C 135.15625 -37.46875 135.40625 -38.800781 135.40625 -40.46875 C 135.070312 -39.46875 134.65625 -38.550781 134.15625 -37.71875 C 133.65625 -36.882812 133.070312 -35.96875 132.40625 -34.96875 C 132.40625 -34.96875 132.488281 -35.382812 132.65625 -36.21875 C 132.820312 -37.050781 132.738281 -37.632812 132.40625 -37.96875 C 132.738281 -37.96875 132.90625 -37.632812 132.90625 -36.96875 C 133.570312 -37.300781 133.738281 -37.632812 133.40625 -37.96875 C 133.070312 -38.300781 132.90625 -38.46875 132.90625 -38.46875 C 132.90625 -42.46875 133.238281 -46.296875 133.90625 -49.953125 C 134.570312 -53.617188 135.40625 -57.453125 136.40625 -61.453125 C 137.070312 -65.117188 137.820312 -68.863281 138.65625 -72.6875 C 139.488281 -76.519531 140.070312 -80.101562 140.40625 -83.4375 C 139.40625 -79.769531 138.40625 -76.101562 137.40625 -72.4375 C 136.40625 -68.78125 135.570312 -65.117188 134.90625 -61.453125 C 133.90625 -58.117188 133.15625 -54.535156 132.65625 -50.703125 C 132.15625 -46.878906 131.570312 -42.800781 130.90625 -38.46875 C 130.570312 -38.132812 129.90625 -36.550781 128.90625 -33.71875 C 127.90625 -30.894531 127.570312 -28.648438 127.90625 -26.984375 C 128.238281 -27.316406 128.40625 -27.734375 128.40625 -28.234375 C 128.40625 -28.734375 128.570312 -29.148438 128.90625 -29.484375 C 129.570312 -30.148438 129.65625 -29.984375 129.15625 -28.984375 C 128.65625 -27.984375 128.570312 -27.148438 128.90625 -26.484375 C 128.238281 -25.484375 127.90625 -23.984375 127.90625 -21.984375 C 127.90625 -19.984375 127.738281 -18.148438 127.40625 -16.484375 C 127.40625 -16.816406 127.488281 -16.984375 127.65625 -16.984375 C 127.820312 -16.984375 127.90625 -16.984375 127.90625 -16.984375 C 127.238281 -15.648438 126.738281 -13.898438 126.40625 -11.734375 C 126.070312 -9.578125 125.738281 -7.5 125.40625 -5.5 C 124.40625 -7.164062 124.238281 -8.910156 124.90625 -10.734375 C 125.570312 -12.566406 126.070312 -14.484375 126.40625 -16.484375 C 127.070312 -18.816406 127.40625 -21.066406 127.40625 -23.234375 C 127.40625 -25.398438 127.570312 -27.484375 127.90625 -29.484375 C 127.238281 -28.148438 126.570312 -26.734375 125.90625 -25.234375 C 125.238281 -23.734375 124.570312 -21.984375 123.90625 -19.984375 C 123.238281 -16.648438 122.738281 -13.234375 122.40625 -9.734375 C 122.070312 -6.242188 121.570312 -3.164062 120.90625 -0.5 C 120.570312 1.164062 120.15625 2.664062 119.65625 4 C 119.164062 5.332031 118.585938 6.664062 117.921875 8 C 116.921875 10.320312 115.253906 12.148438 112.921875 13.484375 C 113.921875 12.816406 114.585938 11.734375 114.921875 10.234375 C 115.253906 8.742188 115.921875 7.332031 116.921875 6 C 115.921875 5.664062 115.085938 5.664062 114.421875 6 C 114.753906 4.332031 115.171875 2.75 115.671875 1.25 C 116.171875 -0.25 116.585938 -1.832031 116.921875 -3.5 C 116.585938 -3.832031 116.585938 -4.082031 116.921875 -4.25 C 117.253906 -4.414062 117.253906 -4.664062 116.921875 -5 C 115.921875 -3.664062 115.171875 -2.082031 114.671875 -0.25 C 114.171875 1.582031 112.921875 2.664062 110.921875 3 C 110.585938 3.664062 109.921875 4 108.921875 4 L 108.921875 1.5 C 108.585938 3.832031 108.003906 6.328125 107.171875 8.984375 C 106.335938 11.648438 105.421875 14.148438 104.421875 16.484375 C 104.421875 17.816406 104.253906 18.484375 103.921875 18.484375 C 103.585938 18.484375 103.585938 18.066406 103.921875 17.234375 C 104.253906 16.398438 104.421875 15.816406 104.421875 15.484375 L 106.421875 4 C 106.085938 4.664062 105.671875 5.25 105.171875 5.75 C 104.671875 6.25 104.253906 7 103.921875 8 C 103.585938 7 103.671875 5.914062 104.171875 4.75 C 104.671875 3.582031 104.585938 2.832031 103.921875 2.5 C 104.921875 0.832031 105.421875 -1.164062 105.421875 -3.5 C 105.421875 -5.832031 105.753906 -7.832031 106.421875 -9.5 L 103.921875 -6 C 103.921875 -4.332031 103.753906 -2.582031 103.421875 -0.75 C 103.085938 1.082031 102.585938 3 101.921875 5 C 101.253906 8.664062 99.921875 11.492188 97.921875 13.484375 L 97.921875 12.484375 C 96.929688 12.484375 95.851562 12.898438 94.6875 13.734375 C 93.519531 14.566406 92.601562 14.816406 91.9375 14.484375 C 91.9375 14.816406 91.851562 15.148438 91.6875 15.484375 C 91.519531 15.816406 91.4375 16.316406 91.4375 16.984375 C 90.101562 14.316406 89.9375 10.898438 90.9375 6.734375 C 91.9375 2.578125 92.769531 -1.332031 93.4375 -5 C 93.101562 -4.664062 92.769531 -4.25 92.4375 -3.75 C 92.101562 -3.25 91.9375 -2.832031 91.9375 -2.5 C 91.601562 -3.164062 91.519531 -3.832031 91.6875 -4.5 C 91.851562 -5.164062 91.9375 -6 91.9375 -7 C 91.601562 -6.332031 91.4375 -5.414062 91.4375 -4.25 C 91.4375 -3.082031 91.4375 -2.164062 91.4375 -1.5 C 91.101562 -1.5 91.019531 -1.75 91.1875 -2.25 C 91.351562 -2.75 91.269531 -3 90.9375 -3 C 90.269531 -3 90.019531 -2.664062 90.1875 -2 C 90.351562 -1.332031 90.101562 -1.164062 89.4375 -1.5 C 89.769531 -2.5 89.769531 -3.082031 89.4375 -3.25 C 89.101562 -3.414062 89.101562 -4 89.4375 -5 C 89.101562 -4.332031 88.769531 -3.582031 88.4375 -2.75 C 88.101562 -1.914062 87.601562 -1.164062 86.9375 -0.5 C 86.9375 1.164062 86.351562 2.914062 85.1875 4.75 C 84.019531 6.582031 83.269531 8 82.9375 9 C 82.601562 9.332031 81.851562 9.828125 80.6875 10.484375 C 79.519531 11.148438 78.601562 11.484375 77.9375 11.484375 C 77.269531 10.160156 76.441406 9.332031 75.453125 9 C 76.109375 8 76.4375 7.082031 76.4375 6.25 C 76.4375 5.414062 76.9375 4.664062 77.9375 4 L 78.4375 4 C 80.101562 3.332031 81.019531 1.75 81.1875 -0.75 C 81.351562 -3.25 81.769531 -5.664062 82.4375 -8 C 81.4375 -7.664062 80.519531 -7 79.6875 -6 C 78.851562 -5 77.9375 -4.164062 76.9375 -3.5 C 77.269531 -4.164062 77.769531 -5.332031 78.4375 -7 C 77.101562 -6.664062 76.351562 -5.914062 76.1875 -4.75 C 76.03125 -3.582031 75.117188 -3.164062 73.453125 -3.5 C 73.453125 -3.5 73.453125 -3.664062 73.453125 -4 C 72.117188 -4 71.453125 -3.832031 71.453125 -3.5 C 70.785156 -4.164062 70.703125 -5 71.203125 -6 C 71.703125 -7 71.285156 -7.5 69.953125 -7.5 C 70.285156 -8.164062 70.617188 -8.332031 70.953125 -8 C 71.285156 -7.664062 71.453125 -7.5 71.453125 -7.5 C 71.785156 -7.832031 72.035156 -8.332031 72.203125 -9 C 72.367188 -9.664062 72.117188 -9.832031 71.453125 -9.5 C 71.117188 -10.820312 71.117188 -12.066406 71.453125 -13.234375 C 71.785156 -14.398438 72.117188 -15.484375 72.453125 -16.484375 C 72.453125 -16.816406 72.367188 -16.898438 72.203125 -16.734375 C 72.035156 -16.566406 71.953125 -16.484375 71.953125 -16.484375 C 72.953125 -18.484375 73.367188 -20.566406 73.203125 -22.734375 C 73.035156 -24.898438 73.285156 -27.148438 73.953125 -29.484375 C 72.953125 -26.148438 72.035156 -22.816406 71.203125 -19.484375 C 70.367188 -16.148438 69.117188 -13.15625 67.453125 -10.5 C 66.785156 -9.832031 66.117188 -9.082031 65.453125 -8.25 C 64.785156 -7.414062 63.785156 -6.664062 62.453125 -6 C 63.117188 -7 63.953125 -7.832031 64.953125 -8.5 C 65.953125 -9.164062 66.617188 -9.832031 66.953125 -10.5 C 66.285156 -10.5 65.867188 -10.332031 65.703125 -10 C 65.535156 -9.664062 65.285156 -9.332031 64.953125 -9 C 64.617188 -9.332031 64.367188 -9.25 64.203125 -8.75 C 64.035156 -8.25 63.785156 -7.832031 63.453125 -7.5 C 61.785156 -7.5 60.785156 -6.832031 60.453125 -5.5 C 60.785156 -7.832031 61.703125 -9.910156 63.203125 -11.734375 C 64.703125 -13.566406 65.953125 -15.648438 66.953125 -17.984375 C 66.617188 -17.648438 66.367188 -17.148438 66.203125 -16.484375 C 66.035156 -15.816406 65.617188 -15.484375 64.953125 -15.484375 C 65.953125 -17.148438 66.785156 -19.066406 67.453125 -21.234375 C 68.117188 -23.398438 68.785156 -25.816406 69.453125 -28.484375 C 68.453125 -26.816406 67.785156 -24.984375 67.453125 -22.984375 C 67.117188 -20.984375 66.285156 -19.484375 64.953125 -18.484375 C 64.953125 -18.484375 64.953125 -18.984375 64.953125 -19.984375 C 64.285156 -19.648438 63.703125 -19.234375 63.203125 -18.734375 C 62.703125 -18.234375 62.117188 -17.648438 61.453125 -16.984375 C 64.117188 -19.648438 65.953125 -23.484375 66.953125 -28.484375 C 66.617188 -28.148438 66.285156 -27.566406 65.953125 -26.734375 C 65.617188 -25.898438 65.285156 -25.148438 64.953125 -24.484375 C 65.953125 -27.816406 66.785156 -31.0625 67.453125 -34.21875 C 68.117188 -37.382812 68.953125 -40.632812 69.953125 -43.96875 C 70.617188 -47.632812 71.453125 -51.128906 72.453125 -54.453125 C 73.453125 -57.785156 74.117188 -61.117188 74.453125 -64.453125 C 75.453125 -70.453125 75.867188 -76.78125 75.703125 -83.4375 C 75.535156 -90.101562 75.453125 -96.597656 75.453125 -102.921875 C 75.785156 -107.585938 75.953125 -112.164062 75.953125 -116.65625 C 75.953125 -121.15625 76.113281 -125.40625 76.4375 -129.40625 L 76.4375 -145.390625 C 76.4375 -146.054688 76.273438 -146.890625 75.953125 -147.890625 C 74.617188 -147.554688 73.285156 -147.390625 71.953125 -147.390625 C 70.617188 -147.390625 69.285156 -147.390625 67.953125 -147.390625 C 67.953125 -142.398438 67.867188 -137.238281 67.703125 -131.90625 C 67.535156 -126.570312 67.285156 -121.242188 66.953125 -115.921875 C 66.285156 -104.585938 65.367188 -93.257812 64.203125 -81.9375 C 63.035156 -70.613281 61.453125 -59.289062 59.453125 -47.96875 C 59.117188 -44.300781 58.617188 -40.550781 57.953125 -36.71875 C 57.285156 -32.894531 56.617188 -29.148438 55.953125 -25.484375 C 55.953125 -24.816406 55.703125 -23.984375 55.203125 -22.984375 C 54.703125 -21.984375 54.289062 -20.648438 53.96875 -18.984375 C 53.632812 -17.648438 53.550781 -16.484375 53.71875 -15.484375 C 53.882812 -14.484375 53.46875 -13.148438 52.46875 -11.484375 C 52.800781 -25.148438 54.046875 -39.472656 56.203125 -54.453125 C 58.367188 -69.441406 59.953125 -84.597656 60.953125 -99.921875 C 61.285156 -103.585938 61.535156 -107.171875 61.703125 -110.671875 C 61.867188 -114.171875 62.117188 -117.914062 62.453125 -121.90625 C 62.453125 -123.90625 62.535156 -125.738281 62.703125 -127.40625 C 62.867188 -129.070312 62.953125 -130.90625 62.953125 -132.90625 L 62.953125 -143.390625 C 62.953125 -144.054688 62.953125 -144.722656 62.953125 -145.390625 C 62.953125 -146.054688 62.953125 -146.722656 62.953125 -147.390625 C 58.617188 -147.722656 54.035156 -148.054688 49.203125 -148.390625 C 44.378906 -148.722656 39.632812 -149.390625 34.96875 -150.390625 C 32.644531 -151.054688 29.648438 -152.054688 25.984375 -153.390625 C 22.316406 -154.722656 18.816406 -156.054688 15.484375 -157.390625 C 15.148438 -157.390625 14.816406 -157.554688 14.484375 -157.890625 C 14.148438 -158.222656 13.648438 -158.554688 12.984375 -158.890625 C 12.316406 -159.222656 11.488281 -159.890625 10.5 -160.890625 C 9.832031 -160.890625 9.164062 -161.222656 8.5 -161.890625 C 7.832031 -162.554688 7.414062 -162.96875 7.25 -163.125 C 7.082031 -163.289062 6.832031 -163.539062 6.5 -163.875 C 5.832031 -164.539062 5.332031 -165.289062 5 -166.125 C 4.664062 -166.957031 4.332031 -167.539062 4 -167.875 C 3.664062 -168.875 3.25 -169.789062 2.75 -170.625 C 2.25 -171.457031 1.5 -172.039062 0.5 -172.375 C 1.5 -172.039062 2.082031 -172.125 2.25 -172.625 C 2.414062 -173.125 2.664062 -173.539062 3 -173.875 C 3 -174.875 3.5 -175.875 4.5 -176.875 C 5.5 -177.539062 6.582031 -177.289062 7.75 -176.125 C 8.914062 -174.957031 9.992188 -174.875 10.984375 -175.875 C 7.992188 -176.539062 6.832031 -177.539062 7.5 -178.875 C 8.164062 -179.875 9.160156 -180.457031 10.484375 -180.625 C 11.816406 -180.789062 12.816406 -181.039062 13.484375 -181.375 C 15.148438 -180.375 16.484375 -180.039062 17.484375 -180.375 C 17.816406 -180.707031 17.898438 -181.039062 17.734375 -181.375 C 17.566406 -181.707031 17.648438 -182.207031 17.984375 -182.875 C 18.316406 -183.539062 18.816406 -183.875 19.484375 -183.875 C 20.148438 -183.875 20.816406 -184.039062 21.484375 -184.375 C 21.816406 -186.03125 22.648438 -187.023438 23.984375 -187.359375 C 24.648438 -187.691406 25.234375 -187.773438 25.734375 -187.609375 C 26.234375 -187.441406 26.648438 -187.523438 26.984375 -187.859375 C 27.984375 -187.859375 28.484375 -188.359375 28.484375 -189.359375 C 30.148438 -190.023438 31.148438 -190.691406 31.484375 -191.359375 C 32.148438 -191.691406 32.726562 -192.191406 33.21875 -192.859375 C 33.71875 -193.523438 34.300781 -194.023438 34.96875 -194.359375 C 35.96875 -195.359375 36.96875 -195.859375 37.96875 -195.859375 L 39.46875 -195.859375 C 39.800781 -195.523438 40.632812 -195.359375 41.96875 -195.359375 C 44.632812 -194.691406 47.378906 -194.191406 50.203125 -193.859375 C 53.035156 -193.523438 56.117188 -193.191406 59.453125 -192.859375 L 59.453125 -193.359375 L 60.453125 -202.859375 C 60.785156 -202.523438 60.953125 -201.859375 60.953125 -200.859375 C 60.953125 -199.859375 61.117188 -199.023438 61.453125 -198.359375 C 62.117188 -198.359375 62.453125 -199.023438 62.453125 -200.359375 C 63.117188 -199.023438 63.703125 -197.773438 64.203125 -196.609375 C 64.703125 -195.441406 65.117188 -194.191406 65.453125 -192.859375 L 70.453125 -192.859375 C 70.453125 -192.859375 70.617188 -192.859375 70.953125 -192.859375 C 71.285156 -192.859375 71.453125 -193.023438 71.453125 -193.359375 C 71.453125 -193.691406 71.285156 -193.859375 70.953125 -193.859375 C 70.617188 -193.859375 70.453125 -194.023438 70.453125 -194.359375 C 70.453125 -195.023438 70.617188 -195.609375 70.953125 -196.109375 C 71.285156 -196.609375 71.453125 -197.023438 71.453125 -197.359375 C 71.453125 -197.691406 71.285156 -198.023438 70.953125 -198.359375 C 70.617188 -198.691406 70.453125 -199.023438 70.453125 -199.359375 C 70.453125 -200.023438 70.617188 -200.523438 70.953125 -200.859375 C 71.285156 -201.191406 71.453125 -201.523438 71.453125 -201.859375 C 71.453125 -202.859375 70.953125 -203.859375 69.953125 -204.859375 C 68.953125 -205.859375 69.117188 -207.019531 70.453125 -208.34375 C 70.117188 -209.007812 69.953125 -209.757812 69.953125 -210.59375 C 69.953125 -211.425781 69.785156 -212.34375 69.453125 -213.34375 C 68.453125 -214.34375 67.953125 -215.175781 67.953125 -215.84375 C 67.953125 -216.84375 68.285156 -217.507812 68.953125 -217.84375 C 68.953125 -219.175781 68.535156 -220.507812 67.703125 -221.84375 C 66.867188 -223.175781 66.785156 -224.507812 67.453125 -225.84375 C 66.453125 -227.5 66.117188 -229.742188 66.453125 -232.578125 C 66.785156 -235.410156 65.953125 -236.992188 63.953125 -237.328125 C 61.953125 -237.328125 60.785156 -237.828125 60.453125 -238.828125 C 60.453125 -239.160156 60.617188 -239.492188 60.953125 -239.828125 C 61.285156 -240.160156 61.453125 -240.660156 61.453125 -241.328125 C 62.785156 -243.328125 62.785156 -245.660156 61.453125 -248.328125 C 61.117188 -248.992188 60.703125 -249.410156 60.203125 -249.578125 C 59.703125 -249.742188 59.453125 -249.988281 59.453125 -250.3125 C 59.117188 -250.976562 59.285156 -251.8125 59.953125 -252.8125 C 60.617188 -253.8125 60.953125 -254.476562 60.953125 -254.8125 C 60.617188 -255.476562 60.203125 -256.0625 59.703125 -256.5625 C 59.203125 -257.0625 58.953125 -257.476562 58.953125 -257.8125 C 58.617188 -258.476562 58.867188 -259.144531 59.703125 -259.8125 C 60.535156 -260.476562 61.117188 -260.976562 61.453125 -261.3125 L 61.453125 -262.3125 C 62.453125 -263.644531 63.117188 -265.3125 63.453125 -267.3125 C 63.785156 -269.3125 63.953125 -270.972656 63.953125 -272.296875 L 63.953125 -274.296875 C 64.617188 -276.296875 65.703125 -278.296875 67.203125 -280.296875 C 68.703125 -282.296875 70.117188 -284.296875 71.453125 -286.296875 C 72.117188 -286.296875 72.785156 -286.460938 73.453125 -286.796875 C 73.785156 -287.460938 74.285156 -288.128906 74.953125 -288.796875 C 75.617188 -289.460938 76.113281 -290.296875 76.4375 -291.296875 C 77.4375 -291.628906 78.101562 -291.960938 78.4375 -292.296875 C 78.769531 -292.628906 79.4375 -292.960938 80.4375 -293.296875 C 81.101562 -293.617188 81.769531 -294.113281 82.4375 -294.78125 C 83.101562 -295.445312 83.9375 -296.113281 84.9375 -296.78125 C 85.601562 -297.445312 86.269531 -298.03125 86.9375 -298.53125 C 87.601562 -299.03125 88.4375 -299.445312 89.4375 -299.78125 C 90.769531 -300.445312 92.1875 -301.03125 93.6875 -301.53125 C 95.1875 -302.03125 96.597656 -302.613281 97.921875 -303.28125 C 100.253906 -303.613281 102.585938 -304.03125 104.921875 -304.53125 C 107.253906 -305.03125 110.085938 -305.445312 113.421875 -305.78125 C 113.421875 -305.78125 113.585938 -305.863281 113.921875 -306.03125 C 114.253906 -306.195312 114.585938 -306.28125 114.921875 -306.28125 C 115.921875 -305.613281 117.332031 -305.445312 119.15625 -305.78125 C 120.988281 -306.113281 122.570312 -306.113281 123.90625 -305.78125 C 124.238281 -305.78125 124.570312 -305.53125 124.90625 -305.03125 C 125.238281 -304.53125 125.570312 -304.28125 125.90625 -304.28125 C 126.90625 -303.945312 127.90625 -303.78125 128.90625 -303.78125 C 129.90625 -303.78125 130.570312 -303.78125 130.90625 -303.78125 C 132.570312 -301.113281 134.816406 -299.195312 137.640625 -298.03125 C 140.472656 -296.863281 142.890625 -295.117188 144.890625 -292.796875 C 145.890625 -291.796875 146.640625 -290.796875 147.140625 -289.796875 C 147.640625 -288.796875 148.390625 -287.796875 149.390625 -286.796875 C 150.722656 -286.460938 151.472656 -285.796875 151.640625 -284.796875 C 151.804688 -283.796875 152.054688 -282.460938 152.390625 -280.796875 C 153.054688 -280.460938 153.554688 -279.628906 153.890625 -278.296875 C 153.890625 -277.296875 154.140625 -276.460938 154.640625 -275.796875 C 155.140625 -275.128906 155.554688 -274.296875 155.890625 -273.296875 C 156.222656 -272.296875 156.304688 -271.296875 156.140625 -270.296875 C 155.972656 -269.304688 155.890625 -268.3125 155.890625 -267.3125 C 155.890625 -266.3125 156.222656 -265.476562 156.890625 -264.8125 Z M 143.390625 -123.90625 C 144.054688 -125.90625 144.472656 -127.988281 144.640625 -130.15625 C 144.804688 -132.320312 144.890625 -134.570312 144.890625 -136.90625 L 143.890625 -136.90625 C 143.890625 -134.570312 143.890625 -132.40625 143.890625 -130.40625 C 143.890625 -128.40625 143.722656 -126.238281 143.390625 -123.90625 Z M 138.90625 -134.90625 C 138.570312 -133.90625 138.488281 -132.820312 138.65625 -131.65625 C 138.820312 -130.488281 138.738281 -129.40625 138.40625 -128.40625 C 138.40625 -128.070312 138.488281 -127.90625 138.65625 -127.90625 C 138.820312 -127.90625 138.90625 -128.070312 138.90625 -128.40625 L 138.90625 -132.90625 C 138.90625 -134.238281 138.90625 -134.90625 138.90625 -134.90625 Z M 136.90625 -76.4375 C 137.90625 -81.101562 138.820312 -85.601562 139.65625 -89.9375 C 140.488281 -94.269531 140.738281 -98.597656 140.40625 -102.921875 L 140.40625 -104.921875 C 140.070312 -104.921875 139.988281 -104.671875 140.15625 -104.171875 C 140.320312 -103.671875 140.070312 -103.253906 139.40625 -102.921875 C 139.070312 -100.585938 138.90625 -98.085938 138.90625 -95.421875 C 138.90625 -92.765625 138.738281 -90.269531 138.40625 -87.9375 C 138.40625 -90.601562 138.488281 -93.265625 138.65625 -95.921875 C 138.820312 -98.585938 139.070312 -101.085938 139.40625 -103.421875 C 139.40625 -106.085938 139.570312 -108.671875 139.90625 -111.171875 C 140.238281 -113.671875 140.070312 -116.085938 139.40625 -118.421875 C 139.070312 -109.085938 138.488281 -99.675781 137.65625 -90.1875 C 136.820312 -80.695312 135.570312 -71.617188 133.90625 -62.953125 C 135.238281 -66.617188 136.15625 -70.613281 136.65625 -74.9375 C 137.15625 -79.269531 137.738281 -83.4375 138.40625 -87.4375 C 138.40625 -85.769531 138.15625 -83.9375 137.65625 -81.9375 C 137.15625 -79.9375 136.90625 -78.101562 136.90625 -76.4375 Z M 136.40625 -104.921875 C 135.738281 -102.585938 135.238281 -99.753906 134.90625 -96.421875 C 134.570312 -93.097656 134.570312 -90.101562 134.90625 -87.4375 C 134.90625 -93.101562 135.40625 -98.929688 136.40625 -104.921875 Z M 140.40625 -77.4375 L 139.90625 -78.4375 C 139.90625 -77.769531 140.070312 -77.4375 140.40625 -77.4375 Z M 139.40625 -66.453125 C 139.40625 -68.117188 139.65625 -69.867188 140.15625 -71.703125 C 140.65625 -73.535156 140.738281 -75.113281 140.40625 -76.4375 C 139.070312 -73.445312 138.738281 -70.117188 139.40625 -66.453125 Z M 136.90625 -49.96875 C 136.570312 -49.300781 136.320312 -48.46875 136.15625 -47.46875 C 135.988281 -46.46875 135.570312 -45.632812 134.90625 -44.96875 C 135.238281 -48.632812 135.988281 -51.960938 137.15625 -54.953125 C 138.320312 -57.953125 138.90625 -61.453125 138.90625 -65.453125 C 137.90625 -61.117188 136.820312 -56.535156 135.65625 -51.703125 C 134.488281 -46.878906 133.90625 -42.300781 133.90625 -37.96875 C 134.570312 -39.300781 135.320312 -41.132812 136.15625 -43.46875 C 136.988281 -45.800781 137.238281 -47.96875 136.90625 -49.96875 Z M 125.90625 -33.96875 C 126.238281 -35.96875 126.65625 -38.050781 127.15625 -40.21875 C 127.65625 -42.382812 127.90625 -44.300781 127.90625 -45.96875 C 127.570312 -43.96875 127.15625 -41.882812 126.65625 -39.71875 C 126.15625 -37.550781 125.90625 -35.632812 125.90625 -33.96875 Z M 132.40625 -44.96875 C 132.738281 -44.632812 132.738281 -44.300781 132.40625 -43.96875 C 132.070312 -43.632812 132.070312 -43.132812 132.40625 -42.46875 C 131.738281 -42.46875 131.570312 -42.800781 131.90625 -43.46875 C 132.238281 -44.132812 132.40625 -44.632812 132.40625 -44.96875 Z M 130.40625 -39.46875 Z M 130.40625 -39.46875 Z M 130.40625 -39.46875 Z M 130.40625 -39.46875 Z M 130.40625 -39.46875 Z M 130.40625 -38.96875 Z M 130.40625 -38.96875 Z M 130.40625 -38.96875 Z M 130.40625 -38.96875 Z M 130.40625 -38.96875 Z M 130.90625 -38.96875 Z M 130.90625 -38.96875 Z M 130.90625 -38.96875 Z M 130.90625 -38.96875 C 130.90625 -38.632812 130.90625 -38.46875 130.90625 -38.46875 C 130.90625 -38.46875 130.90625 -38.632812 130.90625 -38.96875 Z M 130.90625 -38.46875 Z M 130.90625 -38.46875 Z M 130.90625 -38.46875 Z M 130.90625 -38.46875 Z M 130.90625 -38.46875 Z M 130.90625 -38.46875 Z M 132.90625 -33.46875 C 132.90625 -33.46875 132.820312 -33.21875 132.65625 -32.71875 C 132.488281 -32.226562 132.40625 -31.648438 132.40625 -30.984375 C 132.070312 -30.984375 131.988281 -31.644531 132.15625 -32.96875 C 132.320312 -34.300781 132.570312 -34.46875 132.90625 -33.46875 Z M 67.453125 -17.984375 C 67.785156 -19.648438 68.285156 -21.398438 68.953125 -23.234375 C 69.617188 -25.066406 69.953125 -26.816406 69.953125 -28.484375 C 69.617188 -26.816406 69.117188 -25.066406 68.453125 -23.234375 C 67.785156 -21.398438 67.453125 -19.648438 67.453125 -17.984375 Z M 119.421875 -15.484375 C 119.742188 -15.816406 120.070312 -16.316406 120.40625 -16.984375 C 120.738281 -17.648438 120.570312 -18.148438 119.90625 -18.484375 C 119.582031 -18.148438 119.421875 -17.648438 119.421875 -16.984375 C 119.421875 -16.316406 119.421875 -15.816406 119.421875 -15.484375 Z M 75.953125 -15.984375 C 75.953125 -15.984375 76.03125 -16.148438 76.1875 -16.484375 C 76.351562 -16.816406 76.273438 -16.984375 75.953125 -16.984375 C 75.953125 -16.648438 75.785156 -16.398438 75.453125 -16.234375 C 75.117188 -16.066406 75.285156 -15.984375 75.953125 -15.984375 C 75.285156 -15.648438 74.867188 -14.898438 74.703125 -13.734375 C 74.535156 -12.566406 74.117188 -12.148438 73.453125 -12.484375 C 72.453125 -12.148438 71.953125 -11.488281 71.953125 -10.5 C 73.953125 -11.488281 75.285156 -13.316406 75.953125 -15.984375 Z M 117.421875 -5.5 C 118.085938 -6.832031 118.664062 -8.660156 119.15625 -10.984375 C 119.65625 -13.316406 119.578125 -14.816406 118.921875 -15.484375 C 118.585938 -13.816406 118.335938 -12.066406 118.171875 -10.234375 C 118.003906 -8.410156 117.753906 -6.832031 117.421875 -5.5 Z M 90.9375 -10.5 C 91.269531 -11.15625 91.351562 -11.734375 91.1875 -12.234375 C 91.019531 -12.734375 91.101562 -13.316406 91.4375 -13.984375 C 90.769531 -13.984375 90.351562 -13.398438 90.1875 -12.234375 C 90.019531 -11.078125 90.269531 -10.5 90.9375 -10.5 Z M 67.453125 -11.484375 C 67.453125 -11.484375 67.535156 -11.484375 67.703125 -11.484375 C 67.867188 -11.484375 67.953125 -11.648438 67.953125 -11.984375 C 67.617188 -11.984375 67.453125 -11.898438 67.453125 -11.734375 C 67.453125 -11.566406 67.453125 -11.484375 67.453125 -11.484375 Z M 128.90625 -11.484375 C 129.570312 -11.484375 129.90625 -10.820312 129.90625 -9.5 C 128.90625 -10.164062 128.570312 -10.828125 128.90625 -11.484375 Z M 88.9375 -5.5 C 89.601562 -5.832031 90.101562 -6.582031 90.4375 -7.75 C 90.769531 -8.914062 90.601562 -9.664062 89.9375 -10 C 89.601562 -9.664062 89.4375 -9.082031 89.4375 -8.25 C 89.4375 -7.414062 89.269531 -6.5 88.9375 -5.5 Z M 116.921875 -3.5 L 117.421875 -5 C 117.421875 -5 117.335938 -4.832031 117.171875 -4.5 C 117.003906 -4.164062 116.921875 -3.832031 116.921875 -3.5 Z M 97.4375 -1 C 97.4375 -0.332031 97.351562 0.25 97.1875 0.75 C 97.019531 1.25 97.101562 1.832031 97.4375 2.5 C 97.4375 1.832031 97.515625 1.164062 97.671875 0.5 C 97.835938 -0.164062 97.757812 -0.664062 97.4375 -1 Z M 96.4375 9 C 97.101562 9 97.515625 8.582031 97.671875 7.75 C 97.835938 6.914062 97.757812 6.332031 97.4375 6 L 97.4375 3 C 97.101562 3.332031 97.019531 3.75 97.1875 4.25 C 97.351562 4.75 97.101562 5.332031 96.4375 6 C 97.101562 6 97.4375 6.25 97.4375 6.75 C 97.4375 7.25 97.101562 7.664062 96.4375 8 C 96.4375 7.664062 96.601562 7.25 96.9375 6.75 C 97.269531 6.25 97.101562 6.332031 96.4375 7 C 96.4375 9 95.9375 10 94.9375 10 C 95.9375 9 95.9375 8.164062 94.9375 7.5 C 94.9375 8.832031 94.519531 9.992188 93.6875 10.984375 C 92.851562 11.984375 92.601562 13.148438 92.9375 14.484375 C 93.601562 13.816406 94.519531 12.898438 95.6875 11.734375 C 96.851562 10.578125 97.101562 9.664062 96.4375 9 Z M 80.9375 9 C 81.601562 8.332031 82.101562 7.914062 82.4375 7.75 C 82.769531 7.582031 83.101562 7.332031 83.4375 7 C 82.4375 7 81.601562 7.164062 80.9375 7.5 C 81.9375 7.832031 82.101562 8 81.4375 8 C 80.769531 8 80.601562 8.332031 80.9375 9 Z M 90.9375 10.5 C 91.601562 9.832031 91.769531 9.332031 91.4375 9 C 90.4375 10.988281 90.269531 11.488281 90.9375 10.5 Z M 95.4375 10.5 C 95.769531 10.164062 95.9375 9.832031 95.9375 9.5 C 96.601562 9.5 96.851562 9.664062 96.6875 10 C 96.519531 10.332031 96.101562 10.5 95.4375 10.5 Z M 84.9375 13.484375 C 84.601562 12.816406 84.519531 12.234375 84.6875 11.734375 C 84.851562 11.234375 84.9375 10.820312 84.9375 10.5 C 85.269531 10.820312 85.351562 11.234375 85.1875 11.734375 C 85.019531 12.234375 84.9375 12.816406 84.9375 13.484375 Z M 93.9375 15.984375 C 93.9375 16.316406 94.101562 16.234375 94.4375 15.734375 C 94.769531 15.234375 94.9375 14.816406 94.9375 14.484375 C 95.269531 14.816406 95.1875 15.148438 94.6875 15.484375 C 94.1875 15.816406 93.9375 16.148438 93.9375 16.484375 C 93.601562 16.484375 93.4375 16.316406 93.4375 15.984375 C 93.4375 15.648438 93.601562 15.648438 93.9375 15.984375 Z M 93.9375 15.984375 "/></g></g></g></g></g><g transform="matrix(1, 0, 0, 1, 1172, 203)"><g clip-path="url(#d2f20c0ca2)"><g fill="#1257ba" fill-opacity="1"><g transform="translate(85.510534, 597.004602)"><g><path d="M 307.46875 -162.484375 C 310.851562 -173.390625 316.304688 -181.285156 323.828125 -186.171875 C 331.347656 -191.054688 338.867188 -193.5 346.390625 -193.5 C 355.046875 -193.5 362.660156 -190.863281 369.234375 -185.59375 C 375.816406 -180.332031 379.109375 -173.003906 379.109375 -163.609375 C 379.109375 -160.222656 378.171875 -155.707031 376.296875 -150.0625 C 357.867188 -96.65625 328.90625 -58.289062 289.40625 -34.96875 C 249.914062 -11.65625 202.71875 0 147.8125 0 C 100.414062 0 67.691406 -6.957031 49.640625 -20.875 L 4.515625 112.828125 C 1.128906 123.359375 -4.695312 130.972656 -12.96875 135.671875 C -21.25 140.378906 -30.085938 142.734375 -39.484375 142.734375 C -49.640625 142.734375 -58.757812 139.816406 -66.84375 133.984375 C -74.9375 128.160156 -78.984375 119.414062 -78.984375 107.75 C -78.984375 101.738281 -77.664062 95.347656 -75.03125 88.578125 L 65.4375 -308.59375 C 69.570312 -320.625 75.773438 -329.269531 84.046875 -334.53125 C 92.328125 -339.800781 101.171875 -342.4375 110.578125 -342.4375 C 120.734375 -342.4375 129.757812 -340.085938 137.65625 -335.390625 C 145.550781 -330.691406 149.125 -324.957031 148.375 -318.1875 C 154.769531 -323.445312 162.101562 -326.921875 170.375 -328.609375 C 178.644531 -330.304688 186.539062 -331.15625 194.0625 -331.15625 C 208.738281 -331.15625 222.28125 -327.300781 234.6875 -319.59375 C 247.101562 -311.882812 257.070312 -301.632812 264.59375 -288.84375 C 272.113281 -276.0625 275.875 -261.957031 275.875 -246.53125 C 275.875 -236.757812 274.179688 -226.984375 270.796875 -217.203125 C 262.898438 -195.390625 254.90625 -173.101562 246.8125 -150.34375 C 238.726562 -127.59375 230.738281 -105.5 222.84375 -84.0625 L 217.765625 -72.21875 C 237.316406 -79.363281 254.894531 -90.457031 270.5 -105.5 C 286.113281 -120.539062 298.4375 -139.535156 307.46875 -162.484375 Z M 79.546875 -103.8125 C 78.046875 -99.664062 77.296875 -95.335938 77.296875 -90.828125 C 77.296875 -82.929688 79.832031 -77.007812 84.90625 -73.0625 C 89.976562 -69.113281 96.085938 -67.140625 103.234375 -67.140625 C 110.765625 -67.515625 118.003906 -70.144531 124.953125 -75.03125 C 131.910156 -79.914062 136.894531 -86.5 139.90625 -94.78125 C 147.425781 -116.96875 155.039062 -138.6875 162.75 -159.9375 C 170.46875 -181.1875 177.898438 -202.90625 185.046875 -225.09375 C 186.921875 -231.488281 187.859375 -236.753906 187.859375 -240.890625 C 187.859375 -248.035156 185.222656 -253.769531 179.953125 -258.09375 C 174.691406 -262.425781 168.675781 -264.59375 161.90625 -264.59375 C 154.007812 -264.59375 146.675781 -262.144531 139.90625 -257.25 C 133.132812 -252.363281 128.054688 -244.84375 124.671875 -234.6875 Z M 79.546875 -103.8125 "/></g></g></g><g fill="#1257ba" fill-opacity="1"><g transform="translate(374.337469, 597.004602)"><g><path d="M 353.71875 -190.6875 C 362 -190.6875 369.238281 -188.238281 375.4375 -183.34375 C 381.644531 -178.457031 384.75 -171.125 384.75 -161.34375 C 384.75 -156.457031 383.429688 -150.253906 380.796875 -142.734375 C 378.171875 -135.210938 374.789062 -126 370.65625 -115.09375 C 358.613281 -84.625 344.222656 -61.113281 327.484375 -44.5625 C 310.753906 -28.019531 293.457031 -16.457031 275.59375 -9.875 C 257.726562 -3.289062 240.894531 0 225.09375 0 C 219.457031 0 211.84375 -0.75 202.25 -2.25 C 192.65625 -3.757812 183.0625 -6.675781 173.46875 -11 C 163.882812 -15.320312 156.082031 -21.8125 150.0625 -30.46875 C 139.53125 -21.0625 127.773438 -13.628906 114.796875 -8.171875 C 101.828125 -2.722656 88.757812 0 75.59375 0 C 59.050781 0 44.195312 -3.851562 31.03125 -11.5625 C 17.863281 -19.269531 7.425781 -29.613281 -0.28125 -42.59375 C -7.988281 -55.570312 -11.84375 -69.769531 -11.84375 -85.1875 C -11.84375 -90.445312 -11.28125 -95.613281 -10.15625 -100.6875 C -9.03125 -105.769531 -7.710938 -110.757812 -6.203125 -115.65625 L 46.828125 -267.40625 C 54.347656 -289.21875 67.132812 -305.296875 85.1875 -315.640625 C 103.238281 -325.984375 121.476562 -331.15625 139.90625 -331.15625 C 154.195312 -331.15625 166.703125 -329.460938 177.421875 -326.078125 C 188.140625 -322.691406 196.507812 -319.117188 202.53125 -315.359375 C 207.039062 -322.503906 213.054688 -327.863281 220.578125 -331.4375 C 228.109375 -335.007812 235.820312 -336.796875 243.71875 -336.796875 C 254.25 -336.796875 263.742188 -333.597656 272.203125 -327.203125 C 280.671875 -320.816406 284.90625 -311.414062 284.90625 -299 C 284.90625 -293.363281 283.773438 -287.160156 281.515625 -280.390625 L 218.328125 -97.59375 C 216.441406 -90.820312 215.5 -85.367188 215.5 -81.234375 C 215.5 -71.835938 220.578125 -67.140625 230.734375 -67.140625 C 239.390625 -67.140625 248.695312 -70.050781 258.65625 -75.875 C 268.625 -81.707031 278.5 -91.394531 288.28125 -104.9375 C 298.0625 -118.476562 306.523438 -136.71875 313.671875 -159.65625 C 317.054688 -170.5625 322.601562 -178.457031 330.3125 -183.34375 C 338.019531 -188.238281 345.820312 -190.6875 353.71875 -190.6875 Z M 167.546875 -196.328125 C 172.066406 -210.617188 174.328125 -221.710938 174.328125 -229.609375 C 174.328125 -239.390625 171.878906 -246.816406 166.984375 -251.890625 C 162.097656 -256.972656 157.023438 -259.515625 151.765625 -259.515625 C 147.242188 -259.515625 141.503906 -257.347656 134.546875 -253.015625 C 127.585938 -248.691406 121.476562 -237.878906 116.21875 -220.578125 L 80.109375 -107.1875 C 79.359375 -104.550781 78.601562 -101.632812 77.84375 -98.4375 C 77.09375 -95.25 76.71875 -91.773438 76.71875 -88.015625 C 76.71875 -74.097656 82.925781 -67.140625 95.34375 -67.140625 C 101.363281 -67.140625 108.882812 -70.050781 117.90625 -75.875 C 126.9375 -81.707031 134.457031 -93.835938 140.46875 -112.265625 Z M 167.546875 -196.328125 "/></g></g></g><g fill="#1257ba" fill-opacity="1"><g transform="translate(670.497966, 597.004602)"><g><path d="M 77.859375 -97.03125 C 75.972656 -91.394531 75.03125 -86.695312 75.03125 -82.9375 C 75.03125 -72.03125 80.484375 -66.578125 91.390625 -66.578125 C 98.910156 -66.578125 107.375 -69.769531 116.78125 -76.15625 C 126.1875 -82.550781 135.398438 -93.269531 144.421875 -108.3125 L 209.296875 -299 C 213.429688 -310.28125 219.257812 -318.457031 226.78125 -323.53125 C 234.3125 -328.613281 242.023438 -331.15625 249.921875 -331.15625 C 260.453125 -331.15625 269.945312 -327.582031 278.40625 -320.4375 C 286.875 -313.289062 291.109375 -303.890625 291.109375 -292.234375 C 291.109375 -287.722656 290.351562 -283.207031 288.84375 -278.6875 L 209.296875 -49.078125 C 231.492188 -60.359375 251.523438 -75.023438 269.390625 -93.078125 C 287.253906 -111.140625 301.453125 -134.460938 311.984375 -163.046875 C 316.117188 -173.953125 321.851562 -181.941406 329.1875 -187.015625 C 336.519531 -192.097656 343.945312 -194.640625 351.46875 -194.640625 C 360.113281 -194.640625 367.539062 -192.003906 373.75 -186.734375 C 379.957031 -181.472656 383.0625 -173.953125 383.0625 -164.171875 C 383.0625 -159.660156 382.3125 -155.332031 380.8125 -151.1875 C 371.03125 -121.476562 358.804688 -96.1875 344.140625 -75.3125 C 329.472656 -54.4375 313.109375 -36.851562 295.046875 -22.5625 C 276.992188 -8.269531 258.09375 3.570312 238.34375 12.96875 C 218.601562 22.375 198.578125 30.273438 178.265625 36.671875 C 174.128906 48.328125 169.898438 60.171875 165.578125 72.203125 C 161.253906 84.242188 157.023438 96.28125 152.890625 108.3125 C 141.222656 141.039062 123.257812 165.113281 99 180.53125 C 74.75 195.945312 48.707031 203.65625 20.875 203.65625 C 2.445312 203.65625 -14.847656 199.894531 -31.015625 192.375 C -47.191406 184.851562 -60.265625 174.226562 -70.234375 160.5 C -80.203125 146.769531 -85.1875 130.878906 -85.1875 112.828125 C -85.1875 95.523438 -81.332031 80.570312 -73.625 67.96875 C -65.914062 55.375 -55.476562 44.75 -42.3125 36.09375 C -29.144531 27.445312 -14.476562 20.207031 1.6875 14.375 C 17.863281 8.550781 34.601562 3.757812 51.90625 0 C 33.476562 -3.757812 18.242188 -12.125 6.203125 -25.09375 C -5.828125 -38.070312 -11.84375 -54.15625 -11.84375 -73.34375 C -11.84375 -84.25 -9.960938 -94.78125 -6.203125 -104.9375 L 62.0625 -299 C 66.195312 -310.28125 72.023438 -318.457031 79.546875 -323.53125 C 87.066406 -328.613281 94.773438 -331.15625 102.671875 -331.15625 C 113.203125 -331.15625 122.695312 -327.582031 131.15625 -320.4375 C 139.625 -313.289062 143.859375 -303.890625 143.859375 -292.234375 C 143.859375 -286.960938 142.726562 -281.132812 140.46875 -274.75 Z M 75.03125 62.625 C 56.601562 67.507812 40.992188 72.960938 28.203125 78.984375 C 15.421875 85.003906 6.960938 92.898438 2.828125 102.671875 C 1.316406 106.054688 0.5625 110.007812 0.5625 114.53125 C 0.5625 119.414062 2.066406 123.644531 5.078125 127.21875 C 8.085938 130.789062 12.789062 132.578125 19.1875 132.578125 C 27.832031 132.578125 36.101562 129.941406 44 124.671875 C 51.894531 119.410156 57.726562 111.515625 61.5 100.984375 Z M 75.03125 62.625 "/></g></g></g></g></g></svg>