<svg xmlns="http://www.w3.org/2000/svg" xmlns:xlink="http://www.w3.org/1999/xlink" width="500" zoomAndPan="magnify" viewBox="0 0 375 374.999991" height="500" preserveAspectRatio="xMidYMid meet" version="1.0"><defs><g/><clipPath id="ab5cc77e68"><path d="M 100 152 L 139 152 L 139 200 L 100 200 Z M 100 152 " clip-rule="nonzero"/></clipPath><clipPath id="ca0baa9261"><path d="M 101.390625 206.652344 L 92.957031 159.398438 L 129.875 152.808594 L 138.304688 200.0625 Z M 101.390625 206.652344 " clip-rule="nonzero"/></clipPath><clipPath id="3e19fcd180"><path d="M 101.390625 206.652344 L 75.039062 58.984375 L 220.488281 33.027344 L 246.839844 180.695312 Z M 101.390625 206.652344 " clip-rule="nonzero"/></clipPath><clipPath id="6b4d310af3"><path d="M 39.75 219.058594 L 52.804688 219.058594 L 52.804688 232.113281 L 39.75 232.113281 Z M 39.75 219.058594 " clip-rule="nonzero"/></clipPath><clipPath id="c327edc7db"><path d="M 46.277344 219.058594 C 42.671875 219.058594 39.75 221.980469 39.75 225.585938 C 39.75 229.191406 42.671875 232.113281 46.277344 232.113281 C 49.882812 232.113281 52.804688 229.191406 52.804688 225.585938 C 52.804688 221.980469 49.882812 219.058594 46.277344 219.058594 Z M 46.277344 219.058594 " clip-rule="nonzero"/></clipPath><clipPath id="34b485929a"><path d="M 305 214 L 353 214 L 353 252 L 305 252 Z M 305 214 " clip-rule="nonzero"/></clipPath><clipPath id="f5e93cb20f"><path d="M 295.757812 225.265625 L 330.363281 195.34375 L 352.929688 221.4375 L 318.324219 251.363281 Z M 295.757812 225.265625 " clip-rule="nonzero"/></clipPath><clipPath id="9f396a50b9"><path d="M 295.757812 225.265625 L 409.222656 127.15625 L 505.863281 238.917969 L 392.398438 337.027344 Z M 295.757812 225.265625 " clip-rule="nonzero"/></clipPath><clipPath id="4435042b1d"><path d="M 249.558594 189.625 L 262.613281 189.625 L 262.613281 202.679688 L 249.558594 202.679688 Z M 249.558594 189.625 " clip-rule="nonzero"/></clipPath><clipPath id="4087549e51"><path d="M 256.085938 189.625 C 252.480469 189.625 249.558594 192.546875 249.558594 196.152344 C 249.558594 199.757812 252.480469 202.679688 256.085938 202.679688 C 259.6875 202.679688 262.613281 199.757812 262.613281 196.152344 C 262.613281 192.546875 259.6875 189.625 256.085938 189.625 Z M 256.085938 189.625 " clip-rule="nonzero"/></clipPath><clipPath id="e97214a010"><path d="M 205 248 L 249 248 L 249 303 L 205 303 Z M 205 248 " clip-rule="nonzero"/></clipPath><clipPath id="eb4d68d47b"><path d="M 254.199219 259.214844 L 238.230469 302.886719 L 205.125 290.78125 L 221.09375 247.109375 Z M 254.199219 259.214844 " clip-rule="nonzero"/></clipPath><clipPath id="af9d90a959"><path d="M 254.199219 259.214844 L 201.910156 402.207031 L 61.035156 350.691406 L 113.320312 207.703125 Z M 254.199219 259.214844 " clip-rule="nonzero"/></clipPath><clipPath id="8ff16e4818"><path d="M 301.53125 261.949219 L 314.585938 261.949219 L 314.585938 275 L 301.53125 275 Z M 301.53125 261.949219 " clip-rule="nonzero"/></clipPath><clipPath id="331f719f43"><path d="M 308.058594 261.949219 C 304.453125 261.949219 301.53125 264.871094 301.53125 268.476562 C 301.53125 272.078125 304.453125 275 308.058594 275 C 311.664062 275 314.585938 272.078125 314.585938 268.476562 C 314.585938 264.871094 311.664062 261.949219 308.058594 261.949219 Z M 308.058594 261.949219 " clip-rule="nonzero"/></clipPath></defs><rect x="-37.5" width="450" fill="#ffffff" y="-37.499999" height="449.999989" fill-opacity="1"/><rect x="-37.5" width="450" fill="#ffffff" y="-37.499999" height="449.999989" fill-opacity="1"/><path fill="#6b704b" d="M 179.480469 164.070312 L 17.535156 247.101562 C 11.589844 250.152344 11.402344 256.632812 17.011719 260.304688 L 17.015625 260.292969 C 19.222656 261.613281 21.613281 262.246094 24.1875 262.195312 L 334.78125 262.195312 C 345.871094 262.195312 350.007812 251.496094 341.429688 247.101562 Z M 159.050781 107.757812 C 159.019531 116.082031 146.300781 116.1875 146.351562 107.59375 C 146.449219 89.417969 165.578125 76.53125 179.453125 77.355469 C 194.507812 77.628906 204.929688 85.910156 210.039062 96.6875 C 219.234375 116.070312 210.386719 141.039062 185.855469 145.945312 L 185.855469 153.070312 L 347.207031 235.796875 C 367.765625 246.335938 359.125 274.945312 334.78125 274.945312 L 24.1875 274.945312 C 21.726562 274.964844 19.308594 274.640625 16.941406 273.980469 C 14.570312 273.316406 12.339844 272.339844 10.242188 271.050781 L 10.246094 271.039062 C -3.402344 262.460938 -3.332031 243.53125 11.757812 235.796875 C 65.539062 208.226562 119.324219 180.652344 173.105469 153.070312 L 173.105469 140.378906 L 173.121094 140.378906 C 173.121094 139.976562 173.15625 139.582031 173.234375 139.1875 C 173.308594 138.796875 173.417969 138.414062 173.566406 138.042969 C 173.710938 137.667969 173.890625 137.316406 174.105469 136.976562 C 174.320312 136.640625 174.5625 136.324219 174.835938 136.03125 C 175.109375 135.738281 175.40625 135.476562 175.730469 135.238281 C 176.050781 135.003906 176.394531 134.800781 176.757812 134.628906 C 177.117188 134.457031 177.492188 134.320312 177.878906 134.21875 C 178.265625 134.121094 178.65625 134.054688 179.058594 134.027344 C 210.171875 131.941406 206.15625 90.078125 178.808594 90.078125 C 170.363281 90.078125 159.101562 97.703125 159.050781 107.757812 Z M 159.050781 107.757812 " fill-opacity="1" fill-rule="nonzero"/><path stroke-linecap="butt" transform="matrix(0.617443, -0.425751, 0.425751, 0.617443, 70.20714, 274.876592)" fill="none" stroke-linejoin="miter" d="M -0.00277047 5.499562 L 25.676946 5.49888 " stroke="#6b704b" stroke-width="11" stroke-opacity="1" stroke-miterlimit="4"/><path stroke-linecap="butt" transform="matrix(0.75, 0, 0, 0.75, 67.480709, 275.001954)" fill="none" stroke-linejoin="miter" d="M -0.000320158 5.002603 L 38.890307 5.002603 " stroke="#ffffff" stroke-width="10" stroke-opacity="1" stroke-miterlimit="4"/><path stroke-linecap="butt" transform="matrix(0.345969, 0.665436, -0.665436, 0.345969, 107.568439, 178.452468)" fill="none" stroke-linejoin="miter" d="M -0.000951217 49.999142 L 40.479242 50.000637 " stroke="#ffffff" stroke-width="100" stroke-opacity="1" stroke-miterlimit="4"/><g clip-path="url(#ab5cc77e68)"><g clip-path="url(#ca0baa9261)"><g clip-path="url(#3e19fcd180)"><path fill="#6b704b" d="M 217.933594 35.085938 C 215.796875 60.273438 206.804688 84.773438 194.742188 106.820312 C 182.582031 129.070312 166.027344 148.914062 146.078125 164.589844 C 137.035156 171.6875 127.371094 177.664062 117.355469 183.199219 C 118.042969 181.945312 118.65625 180.65625 119.195312 179.328125 C 121.050781 174.675781 123.050781 164.617188 116.355469 163.113281 C 115.125 162.84375 114.203125 163.359375 113.679688 164.214844 C 111.984375 166.050781 112.609375 168.21875 112.53125 170.628906 C 112.449219 173.089844 111.765625 175.421875 110.765625 177.660156 C 108.636719 182.460938 105.058594 186.625 101.625 190.546875 C 99.046875 193.503906 102.582031 197.242188 105.722656 196.953125 C 115.113281 196.070312 123.769531 197.863281 132.882812 199.851562 C 135.882812 200.496094 137.597656 195.648438 134.957031 194.179688 C 130.296875 191.605469 125.144531 190.058594 119.839844 189.269531 C 141.371094 179.992188 160.554688 164.203125 175.945312 146.910156 C 193.542969 127.132812 206.519531 103.976562 214.054688 78.605469 C 218.222656 64.597656 219.898438 49.886719 220.441406 35.332031 C 220.523438 33.714844 218.066406 33.460938 217.933594 35.085938 Z M 217.933594 35.085938 " fill-opacity="1" fill-rule="nonzero"/></g></g></g><g clip-path="url(#6b4d310af3)"><g clip-path="url(#c327edc7db)"><path fill="#6b704b" d="M 39.75 219.058594 L 52.804688 219.058594 L 52.804688 232.113281 L 39.75 232.113281 Z M 39.75 219.058594 " fill-opacity="1" fill-rule="nonzero"/></g></g><path stroke-linecap="butt" transform="matrix(-0.342774, 0.667088, -0.667088, -0.342774, 329.495023, 214.793599)" fill="none" stroke-linejoin="miter" d="M 0.00158857 49.999195 L 40.476891 50.00089 " stroke="#ffffff" stroke-width="100" stroke-opacity="1" stroke-miterlimit="4"/><g clip-path="url(#34b485929a)"><g clip-path="url(#f5e93cb20f)"><g clip-path="url(#9f396a50b9)"><path fill="#6b704b" d="M 502.785156 237.773438 C 480.042969 248.804688 454.386719 253.597656 429.273438 254.496094 C 403.933594 255.414062 378.417969 251.324219 354.75 242.1875 C 344.027344 238.039062 333.949219 232.789062 324.074219 227.007812 C 325.503906 226.957031 326.925781 226.824219 328.34375 226.609375 C 333.289062 225.828125 342.957031 222.40625 340.828125 215.878906 C 340.433594 214.6875 339.515625 214.160156 338.515625 214.144531 C 336.070312 213.628906 334.527344 215.269531 332.414062 216.4375 C 330.257812 217.621094 327.902344 218.226562 325.46875 218.511719 C 320.253906 219.132812 314.847656 218.1875 309.722656 217.238281 C 305.863281 216.535156 304.457031 221.484375 306.308594 224.035156 C 311.867188 231.65625 314.746094 240.015625 317.695312 248.859375 C 318.675781 251.769531 323.71875 250.769531 323.628906 247.75 C 323.464844 242.425781 322.15625 237.207031 320.128906 232.242188 C 339.101562 246.007812 362.480469 254.429688 385.207031 258.824219 C 411.203125 263.84375 437.738281 263.164062 463.398438 256.675781 C 477.566406 253.101562 491.066406 247.027344 503.855469 240.050781 C 505.289062 239.296875 504.25 237.054688 502.785156 237.773438 Z M 502.785156 237.773438 " fill-opacity="1" fill-rule="nonzero"/></g></g></g><g fill="#464931" fill-opacity="1"><g transform="translate(61.344338, 254.558947)"><g><path d="M 32.25 -46.609375 C 32.125 -44.578125 32.003906 -42.570312 31.890625 -40.59375 C 31.785156 -38.613281 31.648438 -36.609375 31.484375 -34.578125 L 17.78125 -33.875 L 17.78125 -29.796875 L 29.671875 -29.796875 L 29.015625 -19.78125 L 17.703125 -19.453125 L 17.78125 -0.328125 L 1.421875 0 L 2.453125 -46.609375 Z M 32.25 -46.609375 "/></g></g></g><g fill="#464931" fill-opacity="1"><g transform="translate(93.597815, 254.558947)"><g><path d="M 18.515625 -45.5 L 16.25 -1.484375 L 2.625 -0.78125 L 1.328125 -44.59375 Z M 18.515625 -45.5 "/></g></g></g><g fill="#464931" fill-opacity="1"><g transform="translate(113.085637, 254.558947)"><g><path d="M 35.875 -45.5625 L 35.546875 -31.859375 L 25.921875 -31.484375 L 24.75 -1.484375 L 11.125 -0.78125 L 9.890625 -30.765625 L 0.265625 -30.25 L 0.640625 -45.5 Z M 35.875 -45.5625 "/></g></g></g><g fill="#464931" fill-opacity="1"><g transform="translate(149.152651, 254.558947)"><g><path d="M 30.0625 -18.421875 L 28.703125 -4.078125 L 1.484375 -1.9375 C 1.617188 -9.457031 1.765625 -16.929688 1.921875 -24.359375 C 2.085938 -31.796875 2.285156 -39.273438 2.515625 -46.796875 L 19.328125 -46.796875 C 18.828125 -42.078125 18.347656 -37.363281 17.890625 -32.65625 C 17.441406 -27.945312 17.125 -23.203125 16.9375 -18.421875 C 17.945312 -18.378906 18.945312 -18.359375 19.9375 -18.359375 C 20.925781 -18.359375 21.929688 -18.359375 22.953125 -18.359375 C 24.148438 -18.359375 25.332031 -18.367188 26.5 -18.390625 C 27.664062 -18.410156 28.851562 -18.421875 30.0625 -18.421875 Z M 30.0625 -18.421875 "/></g></g></g><g fill="#464931" fill-opacity="1"><g transform="translate(179.079224, 254.558947)"><g><path d="M 41.59375 -24.75 C 41.59375 -22.789062 41.363281 -20.898438 40.90625 -19.078125 C 40.457031 -17.265625 39.804688 -15.554688 38.953125 -13.953125 C 38.109375 -12.359375 37.078125 -10.898438 35.859375 -9.578125 C 34.640625 -8.253906 33.269531 -7.117188 31.75 -6.171875 C 30.226562 -5.222656 28.570312 -4.484375 26.78125 -3.953125 C 25 -3.429688 23.109375 -3.171875 21.109375 -3.171875 C 19.160156 -3.171875 17.304688 -3.414062 15.546875 -3.90625 C 13.796875 -4.40625 12.15625 -5.101562 10.625 -6 C 9.101562 -6.894531 7.722656 -7.972656 6.484375 -9.234375 C 5.242188 -10.492188 4.1875 -11.890625 3.3125 -13.421875 C 2.4375 -14.960938 1.753906 -16.617188 1.265625 -18.390625 C 0.785156 -20.160156 0.546875 -22.003906 0.546875 -23.921875 C 0.546875 -25.796875 0.769531 -27.628906 1.21875 -29.421875 C 1.675781 -31.222656 2.328125 -32.921875 3.171875 -34.515625 C 4.023438 -36.109375 5.054688 -37.570312 6.265625 -38.90625 C 7.472656 -40.25 8.828125 -41.40625 10.328125 -42.375 C 11.828125 -43.34375 13.445312 -44.09375 15.1875 -44.625 C 16.9375 -45.164062 18.78125 -45.4375 20.71875 -45.4375 C 23.84375 -45.4375 26.691406 -44.953125 29.265625 -43.984375 C 31.835938 -43.015625 34.035156 -41.628906 35.859375 -39.828125 C 37.679688 -38.035156 39.09375 -35.859375 40.09375 -33.296875 C 41.09375 -30.742188 41.59375 -27.894531 41.59375 -24.75 Z M 27.25 -23.921875 C 27.25 -24.847656 27.113281 -25.742188 26.84375 -26.609375 C 26.570312 -27.484375 26.175781 -28.257812 25.65625 -28.9375 C 25.144531 -29.613281 24.503906 -30.160156 23.734375 -30.578125 C 22.972656 -31.003906 22.097656 -31.21875 21.109375 -31.21875 C 20.085938 -31.21875 19.175781 -31.035156 18.375 -30.671875 C 17.582031 -30.304688 16.898438 -29.804688 16.328125 -29.171875 C 15.765625 -28.535156 15.332031 -27.789062 15.03125 -26.9375 C 14.726562 -26.082031 14.578125 -25.179688 14.578125 -24.234375 C 14.578125 -23.328125 14.703125 -22.421875 14.953125 -21.515625 C 15.210938 -20.617188 15.601562 -19.800781 16.125 -19.0625 C 16.644531 -18.332031 17.285156 -17.738281 18.046875 -17.28125 C 18.816406 -16.832031 19.707031 -16.609375 20.71875 -16.609375 C 21.726562 -16.609375 22.632812 -16.804688 23.4375 -17.203125 C 24.25 -17.609375 24.9375 -18.148438 25.5 -18.828125 C 26.0625 -19.503906 26.492188 -20.285156 26.796875 -21.171875 C 27.097656 -22.054688 27.25 -22.972656 27.25 -23.921875 Z M 27.25 -23.921875 "/></g></g></g><g fill="#464931" fill-opacity="1"><g transform="translate(221.28668, 254.558947)"><g><path d="M 41.59375 -24.75 C 41.59375 -22.789062 41.363281 -20.898438 40.90625 -19.078125 C 40.457031 -17.265625 39.804688 -15.554688 38.953125 -13.953125 C 38.109375 -12.359375 37.078125 -10.898438 35.859375 -9.578125 C 34.640625 -8.253906 33.269531 -7.117188 31.75 -6.171875 C 30.226562 -5.222656 28.570312 -4.484375 26.78125 -3.953125 C 25 -3.429688 23.109375 -3.171875 21.109375 -3.171875 C 19.160156 -3.171875 17.304688 -3.414062 15.546875 -3.90625 C 13.796875 -4.40625 12.15625 -5.101562 10.625 -6 C 9.101562 -6.894531 7.722656 -7.972656 6.484375 -9.234375 C 5.242188 -10.492188 4.1875 -11.890625 3.3125 -13.421875 C 2.4375 -14.960938 1.753906 -16.617188 1.265625 -18.390625 C 0.785156 -20.160156 0.546875 -22.003906 0.546875 -23.921875 C 0.546875 -25.796875 0.769531 -27.628906 1.21875 -29.421875 C 1.675781 -31.222656 2.328125 -32.921875 3.171875 -34.515625 C 4.023438 -36.109375 5.054688 -37.570312 6.265625 -38.90625 C 7.472656 -40.25 8.828125 -41.40625 10.328125 -42.375 C 11.828125 -43.34375 13.445312 -44.09375 15.1875 -44.625 C 16.9375 -45.164062 18.78125 -45.4375 20.71875 -45.4375 C 23.84375 -45.4375 26.691406 -44.953125 29.265625 -43.984375 C 31.835938 -43.015625 34.035156 -41.628906 35.859375 -39.828125 C 37.679688 -38.035156 39.09375 -35.859375 40.09375 -33.296875 C 41.09375 -30.742188 41.59375 -27.894531 41.59375 -24.75 Z M 27.25 -23.921875 C 27.25 -24.847656 27.113281 -25.742188 26.84375 -26.609375 C 26.570312 -27.484375 26.175781 -28.257812 25.65625 -28.9375 C 25.144531 -29.613281 24.503906 -30.160156 23.734375 -30.578125 C 22.972656 -31.003906 22.097656 -31.21875 21.109375 -31.21875 C 20.085938 -31.21875 19.175781 -31.035156 18.375 -30.671875 C 17.582031 -30.304688 16.898438 -29.804688 16.328125 -29.171875 C 15.765625 -28.535156 15.332031 -27.789062 15.03125 -26.9375 C 14.726562 -26.082031 14.578125 -25.179688 14.578125 -24.234375 C 14.578125 -23.328125 14.703125 -22.421875 14.953125 -21.515625 C 15.210938 -20.617188 15.601562 -19.800781 16.125 -19.0625 C 16.644531 -18.332031 17.285156 -17.738281 18.046875 -17.28125 C 18.816406 -16.832031 19.707031 -16.609375 20.71875 -16.609375 C 21.726562 -16.609375 22.632812 -16.804688 23.4375 -17.203125 C 24.25 -17.609375 24.9375 -18.148438 25.5 -18.828125 C 26.0625 -19.503906 26.492188 -20.285156 26.796875 -21.171875 C 27.097656 -22.054688 27.25 -22.972656 27.25 -23.921875 Z M 27.25 -23.921875 "/></g></g></g><g fill="#464931" fill-opacity="1"><g transform="translate(263.494135, 254.558947)"><g><path d="M 39.296875 -29.796875 C 39.296875 -27.703125 38.984375 -25.847656 38.359375 -24.234375 C 37.734375 -22.617188 36.875 -21.203125 35.78125 -19.984375 C 34.695312 -18.765625 33.421875 -17.738281 31.953125 -16.90625 C 30.492188 -16.082031 28.925781 -15.40625 27.25 -14.875 C 25.582031 -14.351562 23.851562 -13.96875 22.0625 -13.71875 C 20.28125 -13.46875 18.53125 -13.332031 16.8125 -13.3125 L 16.8125 0.453125 L 1.75 0.453125 C 1.75 -2.003906 1.753906 -4.394531 1.765625 -6.71875 C 1.773438 -9.050781 1.785156 -11.363281 1.796875 -13.65625 C 1.804688 -15.945312 1.816406 -18.253906 1.828125 -20.578125 C 1.835938 -22.910156 1.851562 -25.316406 1.875 -27.796875 C 1.914062 -30.421875 1.925781 -33.046875 1.90625 -35.671875 C 1.882812 -38.304688 1.9375 -40.957031 2.0625 -43.625 C 4.820312 -44.445312 7.582031 -45.0625 10.34375 -45.46875 C 13.101562 -45.875 15.945312 -46.078125 18.875 -46.078125 C 20.53125 -46.078125 22.1875 -45.941406 23.84375 -45.671875 C 25.507812 -45.410156 27.097656 -44.988281 28.609375 -44.40625 C 30.128906 -43.820312 31.539062 -43.09375 32.84375 -42.21875 C 34.15625 -41.351562 35.285156 -40.316406 36.234375 -39.109375 C 37.179688 -37.898438 37.925781 -36.519531 38.46875 -34.96875 C 39.019531 -33.414062 39.296875 -31.691406 39.296875 -29.796875 Z M 24.953125 -28.703125 C 24.953125 -30.097656 24.523438 -31.1875 23.671875 -31.96875 C 22.816406 -32.757812 21.710938 -33.15625 20.359375 -33.15625 C 19.910156 -33.15625 19.441406 -33.117188 18.953125 -33.046875 C 18.472656 -32.972656 18.015625 -32.878906 17.578125 -32.765625 L 17.1875 -23.328125 C 17.488281 -23.285156 17.78125 -23.265625 18.0625 -23.265625 C 18.34375 -23.265625 18.632812 -23.265625 18.9375 -23.265625 C 19.71875 -23.265625 20.46875 -23.394531 21.1875 -23.65625 C 21.90625 -23.914062 22.546875 -24.285156 23.109375 -24.765625 C 23.671875 -25.253906 24.117188 -25.828125 24.453125 -26.484375 C 24.785156 -27.140625 24.953125 -27.878906 24.953125 -28.703125 Z M 24.953125 -28.703125 "/></g></g></g><g clip-path="url(#4435042b1d)"><g clip-path="url(#4087549e51)"><path fill="#6b704b" d="M 249.558594 189.625 L 262.613281 189.625 L 262.613281 202.679688 L 249.558594 202.679688 Z M 249.558594 189.625 " fill-opacity="1" fill-rule="nonzero"/></g></g><path stroke-linecap="butt" transform="matrix(0, 0.75, -0.75, 0, 306.716468, 256.076174)" fill="none" stroke-linejoin="miter" d="M 0.00260082 50.002169 L 40.476562 50.002169 " stroke="#ffffff" stroke-width="100" stroke-opacity="1" stroke-miterlimit="4"/><g clip-path="url(#e97214a010)"><g clip-path="url(#eb4d68d47b)"><g clip-path="url(#af9d90a959)"><path fill="#6b704b" d="M 64.382812 350.1875 C 79.117188 329.1875 99.511719 312.289062 121.347656 299.109375 C 143.375 285.804688 168.023438 276.851562 193.523438 273.285156 C 205.078125 271.679688 216.609375 271.371094 228.214844 271.632812 C 226.972656 272.378906 225.777344 273.199219 224.625 274.085938 C 220.625 277.21875 213.734375 285.019531 218.839844 289.761719 C 219.78125 290.625 220.851562 290.640625 221.746094 290.160156 C 224.171875 289.414062 224.734375 287.195312 226.03125 285.121094 C 227.359375 283.003906 229.148438 281.304688 231.167969 279.855469 C 235.488281 276.730469 240.75 274.902344 245.765625 273.21875 C 249.535156 271.941406 248.34375 266.855469 245.441406 265.507812 C 236.753906 261.488281 230.078125 255.492188 223.101562 249.101562 C 220.796875 247.003906 216.816406 250.375 218.386719 253.011719 C 221.15625 257.652344 224.886719 261.636719 229.136719 265.039062 C 205.519531 262.183594 180.628906 266.238281 158.300781 273.546875 C 132.769531 281.910156 109.566406 295.589844 90.003906 313.996094 C 79.199219 324.15625 70.214844 336.199219 62.308594 348.691406 C 61.410156 350.070312 63.4375 351.546875 64.382812 350.1875 Z M 64.382812 350.1875 " fill-opacity="1" fill-rule="nonzero"/></g></g></g><g clip-path="url(#8ff16e4818)"><g clip-path="url(#331f719f43)"><path fill="#6b704b" d="M 301.53125 261.949219 L 314.585938 261.949219 L 314.585938 275 L 301.53125 275 Z M 301.53125 261.949219 " fill-opacity="1" fill-rule="nonzero"/></g></g></svg>