<svg xmlns="http://www.w3.org/2000/svg" xmlns:xlink="http://www.w3.org/1999/xlink" width="1920" zoomAndPan="magnify" viewBox="0 0 1440 809.999993" height="1080" preserveAspectRatio="xMidYMid meet" version="1.0"><defs><g/></defs><g fill="#464931" fill-opacity="1"><g transform="translate(323.009646, 447.396573)"><g><path d="M 105.824219 -152.902344 C 105.398438 -146.257812 105.011719 -139.683594 104.65625 -133.179688 C 104.304688 -126.675781 103.84375 -120.101562 103.277344 -113.457031 L 58.320312 -111.125 L 58.320312 -97.765625 L 97.339844 -97.765625 L 95.21875 -64.894531 L 58.109375 -63.832031 L 58.320312 -1.058594 L 4.664062 0 L 8.058594 -152.902344 Z M 105.824219 -152.902344 "/></g></g></g><g fill="#464931" fill-opacity="1"><g transform="translate(428.830756, 447.396573)"><g><path d="M 60.757812 -149.296875 L 53.335938 -4.878906 L 8.589844 -2.542969 L 4.347656 -146.328125 Z M 60.757812 -149.296875 "/></g></g></g><g fill="#464931" fill-opacity="1"><g transform="translate(492.768773, 447.396573)"><g><path d="M 117.699219 -149.511719 L 116.640625 -104.550781 L 85.039062 -103.277344 L 81.222656 -4.878906 L 36.476562 -2.542969 L 32.445312 -100.945312 L 0.847656 -99.25 L 2.121094 -149.296875 Z M 117.699219 -149.511719 "/></g></g></g><g fill="#464931" fill-opacity="1"><g transform="translate(611.101796, 447.396573)"><g><path d="M 98.613281 -60.441406 L 94.160156 -13.359375 L 4.878906 -6.363281 C 5.300781 -31.03125 5.777344 -55.5625 6.308594 -79.949219 C 6.839844 -104.339844 7.492188 -128.867188 8.269531 -153.539062 L 63.410156 -153.539062 C 61.785156 -138.058594 60.226562 -122.59375 58.742188 -107.148438 C 57.257812 -91.703125 56.199219 -76.132812 55.5625 -60.441406 C 58.886719 -60.300781 62.171875 -60.226562 65.425781 -60.226562 C 68.675781 -60.226562 71.960938 -60.226562 75.285156 -60.226562 C 79.242188 -60.226562 83.132812 -60.261719 86.949219 -60.335938 C 90.765625 -60.40625 94.65625 -60.441406 98.613281 -60.441406 Z M 98.613281 -60.441406 "/></g></g></g><g fill="#464931" fill-opacity="1"><g transform="translate(709.288516, 447.396573)"><g><path d="M 136.46875 -81.222656 C 136.46875 -74.789062 135.726562 -68.585938 134.242188 -62.613281 C 132.757812 -56.640625 130.617188 -51.039062 127.824219 -45.808594 C 125.035156 -40.578125 121.640625 -35.785156 117.648438 -31.441406 C 113.652344 -27.09375 109.164062 -23.363281 104.179688 -20.253906 C 99.195312 -17.140625 93.769531 -14.722656 87.902344 -12.988281 C 82.035156 -11.257812 75.816406 -10.390625 69.242188 -10.390625 C 62.878906 -10.390625 56.816406 -11.203125 51.054688 -12.832031 C 45.292969 -14.457031 39.90625 -16.734375 34.886719 -19.667969 C 29.867188 -22.601562 25.324219 -26.136719 21.261719 -30.273438 C 17.195312 -34.410156 13.730469 -39.003906 10.867188 -44.058594 C 8.003906 -49.113281 5.777344 -54.539062 4.1875 -60.335938 C 2.597656 -66.132812 1.800781 -72.175781 1.800781 -78.464844 C 1.800781 -84.617188 2.542969 -90.644531 4.03125 -96.546875 C 5.515625 -102.449219 7.652344 -108.015625 10.445312 -113.246094 C 13.238281 -118.476562 16.613281 -123.285156 20.570312 -127.667969 C 24.53125 -132.050781 28.964844 -135.832031 33.878906 -139.011719 C 38.792969 -142.195312 44.109375 -144.667969 49.835938 -146.433594 C 55.5625 -148.203125 61.605469 -149.085938 67.96875 -149.085938 C 78.21875 -149.085938 87.566406 -147.496094 96.015625 -144.316406 C 104.460938 -141.132812 111.671875 -136.589844 117.648438 -130.6875 C 123.621094 -124.785156 128.25 -117.648438 131.539062 -109.269531 C 134.824219 -100.894531 136.46875 -91.542969 136.46875 -81.222656 Z M 89.386719 -78.464844 C 89.386719 -81.507812 88.945312 -84.457031 88.0625 -87.320312 C 87.179688 -90.183594 85.890625 -92.726562 84.191406 -94.953125 C 82.496094 -97.183594 80.394531 -98.984375 77.882812 -100.363281 C 75.375 -101.742188 72.492188 -102.429688 69.242188 -102.429688 C 65.917969 -102.429688 62.949219 -101.828125 60.335938 -100.628906 C 57.71875 -99.425781 55.472656 -97.78125 53.601562 -95.695312 C 51.726562 -93.613281 50.296875 -91.171875 49.304688 -88.378906 C 48.316406 -85.589844 47.820312 -82.636719 47.820312 -79.527344 C 47.820312 -76.558594 48.246094 -73.589844 49.09375 -70.621094 C 49.941406 -67.652344 51.214844 -64.964844 52.910156 -62.5625 C 54.609375 -60.15625 56.710938 -58.214844 59.222656 -56.730469 C 61.730469 -55.246094 64.644531 -54.503906 67.96875 -54.503906 C 71.292969 -54.503906 74.277344 -55.15625 76.929688 -56.464844 C 79.578125 -57.773438 81.824219 -59.539062 83.664062 -61.765625 C 85.5 -63.992188 86.914062 -66.554688 87.902344 -69.453125 C 88.894531 -72.351562 89.386719 -75.355469 89.386719 -78.464844 Z M 89.386719 -78.464844 "/></g></g></g><g fill="#464931" fill-opacity="1"><g transform="translate(847.767843, 447.396573)"><g><path d="M 136.46875 -81.222656 C 136.46875 -74.789062 135.726562 -68.585938 134.242188 -62.613281 C 132.757812 -56.640625 130.617188 -51.039062 127.824219 -45.808594 C 125.035156 -40.578125 121.640625 -35.785156 117.648438 -31.441406 C 113.652344 -27.09375 109.164062 -23.363281 104.179688 -20.253906 C 99.195312 -17.140625 93.769531 -14.722656 87.902344 -12.988281 C 82.035156 -11.257812 75.816406 -10.390625 69.242188 -10.390625 C 62.878906 -10.390625 56.816406 -11.203125 51.054688 -12.832031 C 45.292969 -14.457031 39.90625 -16.734375 34.886719 -19.667969 C 29.867188 -22.601562 25.324219 -26.136719 21.261719 -30.273438 C 17.195312 -34.410156 13.730469 -39.003906 10.867188 -44.058594 C 8.003906 -49.113281 5.777344 -54.539062 4.1875 -60.335938 C 2.597656 -66.132812 1.800781 -72.175781 1.800781 -78.464844 C 1.800781 -84.617188 2.542969 -90.644531 4.03125 -96.546875 C 5.515625 -102.449219 7.652344 -108.015625 10.445312 -113.246094 C 13.238281 -118.476562 16.613281 -123.285156 20.570312 -127.667969 C 24.53125 -132.050781 28.964844 -135.832031 33.878906 -139.011719 C 38.792969 -142.195312 44.109375 -144.667969 49.835938 -146.433594 C 55.5625 -148.203125 61.605469 -149.085938 67.96875 -149.085938 C 78.21875 -149.085938 87.566406 -147.496094 96.015625 -144.316406 C 104.460938 -141.132812 111.671875 -136.589844 117.648438 -130.6875 C 123.621094 -124.785156 128.25 -117.648438 131.539062 -109.269531 C 134.824219 -100.894531 136.46875 -91.542969 136.46875 -81.222656 Z M 89.386719 -78.464844 C 89.386719 -81.507812 88.945312 -84.457031 88.0625 -87.320312 C 87.179688 -90.183594 85.890625 -92.726562 84.191406 -94.953125 C 82.496094 -97.183594 80.394531 -98.984375 77.882812 -100.363281 C 75.375 -101.742188 72.492188 -102.429688 69.242188 -102.429688 C 65.917969 -102.429688 62.949219 -101.828125 60.335938 -100.628906 C 57.71875 -99.425781 55.472656 -97.78125 53.601562 -95.695312 C 51.726562 -93.613281 50.296875 -91.171875 49.304688 -88.378906 C 48.316406 -85.589844 47.820312 -82.636719 47.820312 -79.527344 C 47.820312 -76.558594 48.246094 -73.589844 49.09375 -70.621094 C 49.941406 -67.652344 51.214844 -64.964844 52.910156 -62.5625 C 54.609375 -60.15625 56.710938 -58.214844 59.222656 -56.730469 C 61.730469 -55.246094 64.644531 -54.503906 67.96875 -54.503906 C 71.292969 -54.503906 74.277344 -55.15625 76.929688 -56.464844 C 79.578125 -57.773438 81.824219 -59.539062 83.664062 -61.765625 C 85.5 -63.992188 86.914062 -66.554688 87.902344 -69.453125 C 88.894531 -72.351562 89.386719 -75.355469 89.386719 -78.464844 Z M 89.386719 -78.464844 "/></g></g></g><g fill="#464931" fill-opacity="1"><g transform="translate(986.247194, 447.396573)"><g><path d="M 128.9375 -97.765625 C 128.9375 -90.90625 127.914062 -84.828125 125.863281 -79.527344 C 123.8125 -74.226562 121.003906 -69.578125 117.433594 -65.582031 C 113.863281 -61.589844 109.675781 -58.230469 104.871094 -55.507812 C 100.0625 -52.789062 94.917969 -50.5625 89.441406 -48.828125 C 83.960938 -47.097656 78.289062 -45.824219 72.421875 -45.011719 C 66.554688 -44.199219 60.792969 -43.757812 55.136719 -43.6875 L 55.136719 1.484375 L 5.726562 1.484375 C 5.726562 -6.574219 5.742188 -14.421875 5.777344 -22.054688 C 5.8125 -29.691406 5.851562 -37.273438 5.886719 -44.800781 C 5.921875 -52.328125 5.957031 -59.910156 5.992188 -67.542969 C 6.027344 -75.179688 6.078125 -83.0625 6.148438 -91.191406 C 6.292969 -99.816406 6.328125 -108.4375 6.257812 -117.0625 C 6.183594 -125.6875 6.363281 -134.382812 6.785156 -143.148438 C 15.835938 -145.835938 24.882812 -147.847656 33.929688 -149.191406 C 42.980469 -150.535156 52.3125 -151.207031 61.925781 -151.207031 C 67.367188 -151.207031 72.8125 -150.765625 78.253906 -149.882812 C 83.699219 -148.996094 88.910156 -147.601562 93.894531 -145.691406 C 98.878906 -143.785156 103.507812 -141.398438 107.785156 -138.535156 C 112.0625 -135.671875 115.753906 -132.261719 118.867188 -128.304688 C 121.976562 -124.34375 124.433594 -119.820312 126.234375 -114.730469 C 128.039062 -109.640625 128.9375 -103.984375 128.9375 -97.765625 Z M 81.859375 -94.160156 C 81.859375 -98.753906 80.464844 -102.34375 77.671875 -104.921875 C 74.878906 -107.503906 71.257812 -108.792969 66.800781 -108.792969 C 65.316406 -108.792969 63.78125 -108.667969 62.191406 -108.421875 C 60.597656 -108.175781 59.097656 -107.875 57.683594 -107.519531 L 56.410156 -76.558594 C 57.402344 -76.417969 58.355469 -76.34375 59.273438 -76.34375 C 60.191406 -76.34375 61.148438 -76.34375 62.136719 -76.34375 C 64.683594 -76.34375 67.136719 -76.769531 69.507812 -77.617188 C 71.875 -78.464844 73.976562 -79.6875 75.816406 -81.277344 C 77.652344 -82.867188 79.121094 -84.738281 80.214844 -86.894531 C 81.3125 -89.050781 81.859375 -91.472656 81.859375 -94.160156 Z M 81.859375 -94.160156 "/></g></g></g></svg>